<svg width="32" height="33" viewBox="0 0 32 33" fill="none" xmlns="http://www.w3.org/2000/svg">
<path d="M30.0506 1.1626C29.4525 -0.375035 27.7532 -0.513383 27.8071 1.51206C28.3614 5.09619 28.5761 9.21649 27.3878 11.9212C26.5022 13.9366 28.7831 18.4763 28.7904 18.5007C32.7605 13.5101 31.733 6.40548 30.0506 1.1626Z" fill="url(#paint0_linear_2_9767)"/>
<path d="M29.989 1.0174C29.7874 0.534379 29.2879 -0.000344465 28.6578 0.00492139C29.644 4.45218 30.2421 11.2801 28.1837 14.7666C27.0629 16.6647 28.7846 18.478 28.7914 18.5025C32.711 13.2691 31.6582 6.16693 29.989 1.0174Z" fill="url(#paint1_linear_2_9767)"/>
<path d="M4.15322 11.9212C2.96492 9.21649 3.18013 5.09619 3.73396 1.51206C3.7874 -0.513383 2.08851 -0.375035 1.49047 1.1626C-0.191905 6.40548 -1.2194 13.5101 2.75067 18.5007C2.75796 18.4763 5.03837 13.9366 4.15322 11.9212Z" fill="url(#paint2_linear_2_9767)"/>
<path d="M3.3562 14.766C1.2978 11.28 1.87786 4.44873 2.86407 0.00146604C2.29178 -0.0330014 1.76273 0.547201 1.55188 1.01347C-0.193647 6.20369 -1.23863 13.4562 2.74796 18.5019C2.7635 18.522 4.47697 16.6641 3.3562 14.766Z" fill="url(#paint3_linear_2_9767)"/>
<path d="M5.67467 12.8506C4.79535 10.1933 5.67467 5.96094 5.67467 5.96094C5.67467 5.96094 0.975881 9.39476 1.79011 16.6784C2.15447 19.9365 8.89708 21.3291 8.89708 21.3291C8.89708 21.3291 6.72258 16.0178 5.67467 12.8506Z" fill="#CCE297"/>
<path d="M3.63037 14.6324C2.75105 11.975 5.67467 5.96094 5.67467 5.96094C5.67467 5.96094 0.975881 9.39476 1.79011 16.6784C2.15447 19.9365 8.89708 21.3291 8.89708 21.3291C8.89708 21.3291 4.67827 17.7995 3.63037 14.6324Z" fill="url(#paint4_linear_2_9767)"/>
<path d="M25.8982 5.96094C25.8982 5.96094 26.7776 10.1933 25.8982 12.8506C24.8503 16.0173 22.6758 21.3286 22.6758 21.3286C22.6758 21.3286 29.4185 19.9361 29.7828 16.6779C30.5966 9.39476 25.8982 5.96094 25.8982 5.96094Z" fill="#CCE297"/>
<path d="M25.8982 5.96094C25.8982 5.96094 28.8219 11.975 27.9426 14.6324C26.8947 17.7991 22.6758 21.3286 22.6758 21.3286C22.6758 21.3286 29.4185 19.9361 29.7828 16.6779C30.5966 9.39476 25.8982 5.96094 25.8982 5.96094Z" fill="url(#paint5_linear_2_9767)"/>
<path d="M24.7841 9.9416C24.6359 9.78171 25.5482 13.4381 24.1044 15.1313C20.5293 19.1052 17.5736 16.837 15.6945 22.4136C15.6508 22.5438 15.4783 20.7457 13.486 19.1492C11.8225 17.8165 8.42087 16.849 7.20002 15.1313C5.7795 13.1337 6.70012 9.85256 6.60538 9.9416C5.24705 11.215 3.54718 13.3031 3.97567 16.623C4.54067 21.0009 8.52095 20.9492 10.5128 23.5017C13.8979 27.8393 12.527 31.6772 15.6945 32.5417C16.5617 32.4747 17.5498 31.3875 18.073 29.7795C18.6239 28.0849 18.9412 26.2332 20.5366 23.9201C22.3521 21.2881 24.6981 21.3001 26.1434 19.7347C28.5263 17.1539 28.1095 13.5286 24.7841 9.9416Z" fill="url(#paint6_linear_2_9767)"/>
<path d="M24.7832 9.94549C24.6253 9.79469 27.7681 13.8528 25.2928 17.3976C23.2237 19.7759 21.2212 20.3374 19.0914 22.6712C17.0087 24.9532 17.2186 28.9265 15.7786 30.3722C15.7466 30.4043 15.1223 29.8251 14.7594 28.7819C14.0215 26.6593 13.6347 23.4194 11.5312 21.7506C9.86143 20.426 6.82266 18.6255 5.75484 16.8117C3.80722 13.5043 6.69927 9.85692 6.60453 9.94549C5.2462 11.2189 3.28788 13.408 3.71637 16.7279C4.28137 21.1058 8.5201 21.0392 10.5119 23.5917C13.8971 27.9294 12.5261 31.7672 15.6936 32.6318C16.5608 32.5647 17.549 31.4776 18.0722 29.8696C18.6231 28.1749 18.9403 26.3233 20.5357 24.0101C22.3512 21.3781 24.6972 21.3901 26.1425 19.8247C28.5254 17.2435 28.6381 13.6273 24.7832 9.94549Z" fill="url(#paint7_linear_2_9767)"/>
<defs>
<linearGradient id="paint0_linear_2_9767" x1="25.6273" y1="17.3043" x2="31.7627" y2="1.08423" gradientUnits="userSpaceOnUse">
<stop offset="0.4525" stop-color="#2B4A9F"/>
<stop offset="1" stop-color="#44A474"/>
</linearGradient>
<linearGradient id="paint1_linear_2_9767" x1="31.7102" y1="0.872228" x2="26.5979" y2="17.8417" gradientUnits="userSpaceOnUse">
<stop stop-color="#7DAF72"/>
<stop offset="1" stop-color="#153641"/>
</linearGradient>
<linearGradient id="paint2_linear_2_9767" x1="-0.710356" y1="17.1914" x2="5.43758" y2="0.937974" gradientUnits="userSpaceOnUse">
<stop offset="0.4246" stop-color="#2B4A9F"/>
<stop offset="1" stop-color="#44A474"/>
</linearGradient>
<linearGradient id="paint3_linear_2_9767" x1="-1.64109" y1="6.92147" x2="6.70143" y2="11.423" gradientUnits="userSpaceOnUse">
<stop stop-color="#70AC73"/>
<stop offset="1" stop-color="#153641"/>
</linearGradient>
<linearGradient id="paint4_linear_2_9767" x1="1.66949" y1="9.04411" x2="10.2973" y2="20.251" gradientUnits="userSpaceOnUse">
<stop offset="0.5196" stop-color="#3F976E"/>
<stop offset="0.6704" stop-color="#2A6356"/>
</linearGradient>
<linearGradient id="paint5_linear_2_9767" x1="20.3094" y1="15.2546" x2="29.5304" y2="11.6625" gradientUnits="userSpaceOnUse">
<stop offset="0.5475" stop-color="#2A6356"/>
<stop offset="0.8492" stop-color="#3F976E"/>
</linearGradient>
<linearGradient id="paint6_linear_2_9767" x1="3.90816" y1="21.2396" x2="27.6562" y2="21.2396" gradientUnits="userSpaceOnUse">
<stop stop-color="#44A474"/>
<stop offset="0.9944" stop-color="#2B4A9F"/>
</linearGradient>
<linearGradient id="paint7_linear_2_9767" x1="3.65608" y1="21.2868" x2="27.8257" y2="21.2868" gradientUnits="userSpaceOnUse">
<stop stop-color="#2B4A9F"/>
<stop offset="1" stop-color="#44A474"/>
</linearGradient>
</defs>
</svg>
