<svg viewBox="0 0 1512 1127" fill="none" xmlns="http://www.w3.org/2000/svg">
<g clip-path="url(#clip0_21_18319)">
<path fill-rule="evenodd" clip-rule="evenodd" d="M1249.22 1028.96C1257.62 1032.96 1279.99 1033.62 1284.83 1032.38C1289.67 1031.14 1297.18 1027.01 1297.18 1027.01L1297.33 1031.01L1318.87 1031.07H1320.16V1028.8L1320.37 1017.44C1318.58 1015.13 1316.48 1013.08 1314.13 1011.34C1310.59 1008.7 1306.58 1006.76 1302.31 1005.62C1298.38 1004.49 1294.29 1004.02 1290.21 1004.2C1288.71 1006.15 1287.04 1007.97 1285.21 1009.62V1009.62C1271.92 1021.8 1254.62 1022.21 1254.62 1022.21C1253.88 1022.71 1253.21 1023.3 1252.62 1023.97C1251.23 1025.45 1250.09 1027.13 1249.22 1028.96V1028.96Z" fill="#0D2275"/>
<path style="mix-blend-mode:multiply" opacity="0.86" fill-rule="evenodd" clip-rule="evenodd" d="M1249.22 1028.96C1257.62 1032.96 1279.99 1033.62 1284.83 1032.38C1289.67 1031.14 1297.18 1027.01 1297.18 1027.01L1297.33 1031.01L1318.87 1031.07L1320.15 1028.8L1320.36 1017.44C1318.57 1015.13 1316.47 1013.08 1314.12 1011.34L1302.3 1005.62C1298.37 1004.49 1294.28 1004.02 1290.2 1004.2C1288.7 1006.15 1287.03 1007.97 1285.2 1009.62C1285.87 1009.62 1301.44 1009.95 1313.01 1018.84C1313.01 1018.84 1292.64 1026.34 1279.01 1027.84C1265.38 1029.34 1252.53 1023.94 1252.53 1023.94C1251.17 1025.43 1250.06 1027.13 1249.22 1028.96V1028.96Z" fill="url(#paint0_linear_21_18318)"/>
<path fill-rule="evenodd" clip-rule="evenodd" d="M1368.43 909.6C1368.43 909.6 1343.91 934.18 1324.43 932.87C1304.95 931.56 1297.16 916.76 1297.16 916.76L1314.16 876.56L1331.37 875.92L1368.43 909.6Z" fill="url(#paint1_radial_21_18319)"/>
<path fill-rule="evenodd" clip-rule="evenodd" d="M1368.43 909.6C1368.43 909.6 1343.91 934.18 1324.43 932.87C1304.95 931.56 1297.16 916.76 1297.16 916.76L1314.16 876.56L1331.37 875.92L1368.43 909.6Z" fill="#030C3C"/>
<path fill-rule="evenodd" clip-rule="evenodd" d="M1288.31 1006.47L1290.2 1004.18C1304.71 1003.47 1320.36 1017.42 1320.36 1017.42L1320.51 1021.42H1320.57C1321.09 1021 1324.5 1018.08 1324.13 1015.97C1323.74 1013.7 1321.82 1007.5 1321.82 1007.5C1324.82 993.171 1329.48 934.441 1327.91 928.991C1326.34 923.541 1321.56 914.701 1321.56 914.701C1320.5 911.061 1319.63 899.931 1319.63 899.931C1313.08 900.421 1296.37 924.051 1296.37 924.051C1296.81 927.781 1297.11 931.481 1297.3 935.131C1298.9 966.131 1292.13 994.391 1292.13 994.391C1289.86 995.091 1285.84 998.151 1285.84 998.151C1285.68 1001.91 1288.31 1006.47 1288.31 1006.47Z" fill="#1F307A"/>
<path style="mix-blend-mode:multiply" opacity="0.4" fill-rule="evenodd" clip-rule="evenodd" d="M1288.31 1006.47L1290.2 1004.18C1304.71 1003.47 1320.36 1017.42 1320.36 1017.42L1320.51 1021.42H1320.57C1321.09 1021 1324.5 1018.08 1324.13 1015.97C1323.74 1013.7 1321.82 1007.5 1321.82 1007.5C1324.82 993.171 1329.48 934.441 1327.91 928.991C1326.34 923.541 1321.56 914.701 1321.56 914.701C1320.5 911.061 1319.63 899.931 1319.63 899.931C1313.08 900.421 1296.37 924.051 1296.37 924.051C1296.81 927.781 1297.11 931.481 1297.3 935.131C1306.09 938.411 1313.59 944.444 1318.67 952.331C1318.67 952.331 1321.54 980.231 1316.53 998.981C1316.53 998.981 1302.3 992.791 1292.13 994.391C1292.13 994.391 1309.78 993.731 1322.85 1015.88L1318.85 1013.78C1318.85 1013.78 1301.85 997.601 1285.85 998.151C1285.68 1001.91 1288.31 1006.47 1288.31 1006.47Z" fill="url(#paint2_linear_21_18318)" fill-opacity="0.66"/>
<path fill-rule="evenodd" clip-rule="evenodd" d="M1342.75 1007.91L1346.75 1001.64C1351.19 1001.34 1355.64 1002.07 1359.75 1003.79C1366.09 1006.61 1373.06 1013.29 1373.06 1013.29L1373.29 1019.4C1373.29 1019.4 1376.48 1019.22 1378.13 1017.98C1378.4 1017.81 1378.63 1017.58 1378.8 1017.31C1378.97 1017.04 1379.09 1016.74 1379.13 1016.42C1379.32 1013.86 1376.13 1005.54 1375.86 1004.95C1377.68 980.121 1378.56 929.951 1375.8 921.771C1374.08 916.747 1371.85 911.915 1369.14 907.351L1345.7 928.911C1346.38 931.463 1346.88 934.059 1347.19 936.681C1347.95 942.649 1348.29 948.664 1348.19 954.681C1348 971.611 1346.19 995.311 1346.19 995.311C1346.19 995.311 1341.83 995.571 1341.42 998.441C1341.36 998.804 1341.34 999.173 1341.36 999.541C1341.56 1002.37 1342.02 1005.17 1342.75 1007.91V1007.91Z" fill="#1F307A"/>
<path style="mix-blend-mode:multiply" opacity="0.4" fill-rule="evenodd" clip-rule="evenodd" d="M1375.88 1004.91C1377.7 980.081 1378.58 929.911 1375.82 921.731C1374.1 916.707 1371.87 911.875 1369.16 907.311L1345.7 928.911C1346.38 931.463 1346.88 934.059 1347.19 936.681V936.731C1347.19 936.731 1366.35 939.24 1370.99 944.38C1370.99 944.38 1375.24 982.821 1373.88 1001.02C1373.88 1001.02 1365.72 995.951 1358.41 995.141C1365.05 996.66 1371.11 1000.05 1375.88 1004.91V1004.91Z" fill="url(#paint3_linear_21_18318)" fill-opacity="0.66"/>
<path fill-rule="evenodd" clip-rule="evenodd" d="M1231.06 783.82C1231.06 783.82 1232.86 774.82 1228.9 767.1C1224.94 759.38 1213.1 756.45 1213.1 756.45C1213.1 756.45 1209.81 760.76 1211.64 764.77C1213.47 768.78 1220.89 779.31 1220.89 779.31C1220.89 779.31 1228.16 784.55 1231.06 783.82Z" fill="#050E30"/>
<path fill-rule="evenodd" clip-rule="evenodd" d="M1361.92 768.55C1361.92 768.55 1358.92 763.71 1359.72 761.35C1360.52 758.99 1373.57 752.79 1382.92 757.35C1392.27 761.91 1393.51 771.06 1392.75 774.86C1391.99 778.66 1387.59 781.34 1387.59 781.34C1387.59 781.34 1377.68 780.77 1374.96 779.05C1372.24 777.33 1361.92 768.55 1361.92 768.55Z" fill="#050E30"/>
<path fill-rule="evenodd" clip-rule="evenodd" d="M1211.98 762C1211.98 760.093 1212.36 758.205 1213.11 756.45C1217.35 759.428 1221.06 763.084 1224.11 767.27C1229.48 774.5 1231.11 783.82 1231.11 783.82C1227.47 782.956 1224.02 781.427 1220.94 779.31C1220.94 779.31 1222.69 782.31 1233.14 786.39L1234.03 783.1C1234.89 782.5 1262.62 763.35 1274.45 741.1C1275.56 733.491 1277.4 726.007 1279.94 718.75C1281.9 713.477 1284.32 708.39 1287.19 703.55C1287.87 702.43 1288.28 701.83 1288.28 701.83C1288.28 701.83 1290.1 674.33 1284.94 667.39C1282.16 663.755 1279.7 659.888 1277.58 655.83C1274.26 664.21 1271.58 672.832 1269.58 681.62C1265.89 697.26 1254.51 725.62 1254.51 725.62C1254.51 725.62 1251.14 724.22 1250.32 724.7C1249.98 724.92 1249.86 725.78 1249.83 726.7C1249.83 727.539 1249.87 728.377 1249.96 729.21C1249.96 729.21 1232.87 744.16 1224.96 749.21C1217.05 754.26 1211.8 754.89 1211.8 754.89C1211.8 754.89 1210.87 759.7 1211.98 762Z" fill="#3548A9"/>
<path fill-rule="evenodd" clip-rule="evenodd" d="M1284.92 923.14C1296.05 931.89 1315.68 933.2 1315.68 933.2C1317.37 922.52 1321.97 905.01 1323.85 898.09L1324.66 895.14C1329.23 908.484 1335.96 920.984 1344.59 932.14C1355.27 930.14 1363.9 923.52 1369.77 917.57C1372.98 914.353 1375.85 910.814 1378.33 907.01C1376.38 904.345 1374.7 901.487 1373.33 898.48C1373.3 898.439 1373.27 898.392 1373.26 898.34C1372.52 896.678 1371.93 894.955 1371.48 893.19C1369.8 886.12 1364.02 824.55 1362.07 805.25C1360.12 785.95 1357.07 758.32 1358.07 742.17C1358.4 736.99 1359.61 725.79 1361.13 713C1364.31 685.93 1368.76 651.63 1368.76 651.63C1367.04 643.95 1362.31 642.69 1362.31 642.69C1350.06 642.53 1338.09 633.2 1338.09 633.2C1334.53 630.78 1306.22 631.96 1303.25 636.2C1300.28 640.44 1277.55 655.83 1277.55 655.83C1277.55 655.83 1282.3 662.59 1284.22 681.28C1284.96 688.55 1286.67 700.1 1288.57 713.39C1288.57 713.39 1288.57 713.68 1288.69 714.21C1288.73 714.409 1288.75 714.609 1288.77 714.81C1290.93 729.81 1293.28 746.89 1294.77 762.56C1294.77 762.82 1294.82 763.08 1294.84 763.34C1294.92 764.01 1294.97 764.67 1295.03 765.34C1295.03 765.68 1295.09 766 1295.12 766.34V766.49C1295.53 771.01 1295.84 775.37 1296.05 779.49C1296.13 781.19 1296.2 783.05 1296.24 785.05V785.6C1297.02 821.86 1291.87 900.89 1290.05 908.66C1288.88 913.66 1287.16 918.516 1284.92 923.14V923.14Z" fill="#3548A9"/>
<path style="mix-blend-mode:multiply" opacity="0.4" fill-rule="evenodd" clip-rule="evenodd" d="M1288.57 713.4C1288.57 713.4 1288.57 713.69 1288.69 714.22C1288.73 714.418 1288.75 714.619 1288.77 714.82C1289.67 721.42 1293.48 749.59 1294.77 762.57C1294.77 762.83 1294.82 763.09 1294.84 763.35C1294.92 764.07 1294.98 764.73 1295.03 765.35C1295.03 765.71 1295.09 766.03 1295.12 766.35V766.5C1295.81 775.95 1296.12 783.11 1296.24 785.09V785.64L1305.24 770.7L1310.62 833.7C1310.62 833.7 1308.52 779.39 1307.55 768.7C1307.52 768.15 1307.45 767.603 1307.36 767.06C1306.52 763.22 1330.78 753.51 1346.79 749.97C1346.79 749.97 1344.89 799.21 1347.89 814.19C1350.89 828.84 1369.05 889.75 1373.23 898.39C1372.49 896.727 1371.9 895.004 1371.45 893.24C1369.77 886.17 1363.99 824.6 1362.04 805.3C1360.09 786 1357.04 758.37 1358.04 742.22C1358.37 737.04 1359.58 725.84 1361.1 713.05L1361.03 712.81L1357.32 701.71C1357.32 701.71 1354.32 704.32 1333.25 714.71C1314.3 724.01 1306.14 725.38 1304.66 725.57C1307.17 725.39 1327.53 723.82 1335.77 720.45C1335.77 720.45 1318.91 729.72 1304.61 731.18C1297.59 727.008 1292 720.81 1288.57 713.4V713.4Z" fill="url(#paint4_linear_21_18318)" fill-opacity="0.66"/>
<path fill-rule="evenodd" clip-rule="evenodd" d="M1208.37 779.78C1208.37 779.78 1200.48 773.32 1195.09 772.22C1195.09 772.22 1187.91 770.46 1184.77 770.48C1181.63 770.5 1177.02 770.68 1174.53 770.16C1172.04 769.64 1162.91 762.49 1162.17 761.16C1161.43 759.83 1163.27 757.83 1164.33 757.64C1165.39 757.45 1169.08 759.83 1169.08 759.83C1169.08 759.83 1189.67 764.41 1196.69 765.99C1203.71 767.57 1209.86 774.67 1209.86 774.67L1209.94 776.8L1208.37 779.78Z" fill="url(#paint5_linear_21_18318)"/>
<path fill-rule="evenodd" clip-rule="evenodd" d="M1355.91 770.91C1355.91 770.91 1348.74 774.62 1347.91 777.32C1347.55 778.46 1352.03 781.15 1355.27 779.19C1358.51 777.23 1355.91 770.91 1355.91 770.91Z" fill="url(#paint6_linear_21_18318)"/>
<path fill-rule="evenodd" clip-rule="evenodd" d="M1317.88 599.98C1317.88 599.98 1320.02 613.51 1323.96 622.24C1323.96 622.24 1322.82 629.78 1319.17 634.5C1315.52 639.22 1310.9 638.18 1310.9 638.18C1310.9 638.18 1307.6 636.01 1306.76 634.05C1306.76 634.05 1306.65 627.05 1305.59 623.23L1316.45 598.51L1317.88 599.98Z" fill="url(#paint7_linear_21_18318)"/>
<path fill-rule="evenodd" clip-rule="evenodd" d="M1267.35 590.34C1267.8 592.62 1267.7 596.22 1267.76 600.34C1267.81 602.46 1267.88 604.72 1268.09 606.98C1268.09 607.44 1268.18 607.9 1268.24 608.35C1268.51 610.601 1269 612.821 1269.69 614.98C1272.69 623.84 1286.15 634.98 1295.47 633.39C1303.64 632 1311.13 621.12 1314.65 611.39C1314.78 611.04 1314.9 610.68 1315.01 610.33C1315.31 609.44 1315.57 608.57 1315.81 607.72L1315.9 607.34C1318.58 596.84 1318.9 579.34 1316.1 569.19C1313.83 561.03 1308.1 556.42 1299.23 554.06C1297 553.489 1294.73 553.052 1292.44 552.75C1288.33 552.165 1284.16 552.084 1280.03 552.51H1279.91C1275.69 552.9 1271.64 554.424 1268.21 556.92C1266.09 558.576 1264.41 560.728 1263.31 563.187C1262.22 565.645 1261.74 568.335 1261.93 571.02C1262.31 580.17 1266.35 585.49 1267.35 590.34Z" fill="url(#paint8_linear_21_18318)"/>
<path style="mix-blend-mode:multiply" opacity="0.6" fill-rule="evenodd" clip-rule="evenodd" d="M1267.35 590.35C1267.81 592.62 1267.7 596.21 1267.75 600.3C1272.21 604.12 1277.1 598.3 1277.1 598.3C1277.16 595.53 1275.62 587.18 1272.9 583.78C1271.44 581.833 1269.44 580.361 1267.15 579.55C1266.46 575.3 1269.41 569.55 1269.41 569.55C1279.49 570.55 1294.16 559.15 1294.16 559.15C1300.03 564.74 1297.9 574.61 1297.9 574.61C1291.2 571.95 1282.75 573.19 1282.75 573.19C1283.61 587.83 1288.4 597.6 1288.4 597.6C1301.46 597.8 1308.99 587.96 1308.99 587.96C1314.14 594.82 1314.28 611.46 1314.28 611.46L1314.63 611.37C1315.13 609.98 1315.54 608.62 1315.88 607.37C1318.56 596.87 1318.88 579.37 1316.08 569.23C1313.81 561.06 1308.08 556.45 1299.21 554.09L1280.01 552.55H1279.94L1268.24 556.94C1266.12 558.598 1264.44 560.75 1263.35 563.208C1262.25 565.666 1261.78 568.355 1261.96 571.04C1262.32 580.17 1266.34 585.49 1267.35 590.35Z" fill="url(#paint9_linear_21_18318)"/>
<path fill-rule="evenodd" clip-rule="evenodd" d="M1262.81 577.23C1262.23 575.084 1261.93 572.873 1261.91 570.65C1262.86 572.353 1264.16 573.841 1265.71 575.02C1265.71 575.02 1265.81 567.79 1270.22 563.08C1270.22 563.08 1274.14 563.54 1281.11 561.68C1288.08 559.82 1292.62 556.34 1294.81 555.88C1297 555.42 1304.57 559.97 1305.65 561.88C1306.73 563.79 1306.9 566.16 1305.4 569.12C1305.4 569.12 1305.96 573.19 1309.56 579.12C1311.03 581.637 1312.67 584.053 1314.46 586.35L1318.14 582.13C1318.14 582.13 1320.81 564.13 1319.37 560.13C1314.82 555.874 1309.09 553.087 1302.93 552.13C1292.63 550.53 1288.93 550.58 1281 550.19C1273.07 549.8 1258.35 546 1258.35 546C1258.35 546 1260.54 549.27 1262.47 550.12C1262.47 550.12 1255.86 554.95 1255.27 561.56C1255.25 561.933 1255.25 562.307 1255.27 562.68C1255.54 569.04 1262.28 576.67 1262.81 577.23Z" fill="#1A328A"/>
<path fill-rule="evenodd" clip-rule="evenodd" d="M1301.06 575.83C1295.31 573.25 1289.03 572.098 1282.74 572.47C1283.38 574.224 1284.56 575.731 1286.11 576.78C1286.11 576.78 1289.39 574.44 1301.06 575.83Z" fill="#050E30"/>
<path fill-rule="evenodd" clip-rule="evenodd" d="M1272.91 583.77C1272.91 583.77 1266.57 574.97 1263 577.98C1263 577.98 1263.34 581.25 1264.62 582.83C1264.73 582.287 1265.02 581.797 1265.44 581.435C1265.86 581.073 1266.39 580.86 1266.94 580.83C1269.02 580.55 1272.91 583.77 1272.91 583.77Z" fill="#050E30"/>
<path style="mix-blend-mode:multiply" opacity="0.5" fill-rule="evenodd" clip-rule="evenodd" d="M1268.25 608.32C1268.51 610.573 1268.99 612.793 1269.69 614.95C1272.69 623.8 1286.15 634.951 1295.47 633.361C1303.64 631.971 1311.14 621.081 1314.65 611.361C1315.1 610.101 1315.48 608.881 1315.8 607.681C1315.84 607.56 1315.88 607.436 1315.9 607.311C1313.53 603.931 1303.46 604.51 1303.46 604.51C1298.18 603.056 1292.79 602.052 1287.34 601.51C1281.16 601.09 1271.37 605.02 1268.25 608.32Z" fill="url(#paint10_linear_21_18318)" fill-opacity="0.66"/>
<path fill-rule="evenodd" clip-rule="evenodd" d="M1217.16 760.33C1214.07 761.533 1210.87 762.404 1207.6 762.93C1202.93 763.56 1185.76 762.48 1181.23 761.32C1176.7 760.16 1168.92 756.78 1167.49 756.63C1166.06 756.48 1165.22 758.55 1165.89 760.16C1165.89 760.16 1170.97 765.27 1176.04 767.02C1176.04 767.02 1184.72 767.41 1192.9 768.12C1201.08 768.83 1209.11 776.12 1209.11 776.12C1207.73 778.727 1205.88 781.058 1203.66 783C1203.66 783 1198.66 783.23 1196.98 784.52C1195.3 785.81 1193.98 789.43 1193.85 793.52C1194.48 793.876 1195.19 794.05 1195.91 794.022C1196.63 793.993 1197.33 793.764 1197.93 793.36C1197.93 793.36 1203.17 787.36 1206.21 786.36C1209.25 785.36 1217.13 783.27 1219.38 780.84C1221.63 778.41 1221.38 770.26 1221.38 770.26L1224.38 767.78C1224.38 767.78 1220.41 761.54 1217.16 760.33Z" fill="url(#paint11_linear_21_18318)"/>
<path fill-rule="evenodd" clip-rule="evenodd" d="M1299.99 639.38C1301.35 633.25 1306.41 628.12 1306.41 628.12L1306.76 634.05C1306.76 634.96 1310.9 638.18 1310.9 638.18C1320.99 635.43 1323.96 622.24 1323.96 622.24L1322.86 619.54C1325.35 621.75 1330.25 627 1330.25 627C1332.3 628.91 1336.13 630.15 1338.9 631.82C1336.74 641.12 1333.43 650.115 1329.05 658.6C1321.82 672.54 1313.68 689.36 1308.54 701.79C1308.54 701.79 1294.68 679.27 1292.82 653.23L1299.99 639.38Z" fill="#2E44B7"/>
<path fill-rule="evenodd" clip-rule="evenodd" d="M1366.28 732.37C1366.87 739.89 1364.01 756.11 1364.01 756.11C1364.01 756.11 1359.81 755.65 1359.54 756.68C1359.44 758.239 1359.5 759.803 1359.71 761.35C1361.05 758.62 1375.27 757.35 1382.06 761.85C1388.85 766.35 1391.14 775.38 1390.52 777.85C1390.31 778.591 1389.96 779.279 1389.47 779.872C1388.98 780.464 1388.37 780.948 1387.68 781.29L1391.31 779.92L1392.1 778.42C1393.81 775.13 1397.69 767.11 1397.96 761.79C1398.19 757.5 1397.24 750.79 1395.84 744.79C1395.14 741.535 1394.19 738.336 1393.01 735.22C1390.32 728.3 1388.52 721.31 1383.94 705.15C1379.36 688.99 1368.78 651.69 1368.78 651.69C1368.78 651.69 1355.12 667.9 1354.36 680.38C1353.91 687.51 1355.71 695.79 1357.36 701.54L1357.42 701.72C1358.59 705.91 1359.65 708.72 1359.65 708.72C1359.65 708.72 1365.69 724.83 1366.28 732.37Z" fill="#3548A9"/>
<path fill-rule="evenodd" clip-rule="evenodd" d="M1388.81 774.99L1389.93 772.99C1389.93 772.99 1385.83 758.87 1371.34 758.99C1371.34 758.99 1368.34 763.99 1364.88 764.88C1364.88 764.88 1373.35 763.27 1380.19 766.27C1382.14 767.07 1383.91 768.255 1385.39 769.753C1386.87 771.251 1388.03 773.032 1388.81 774.99V774.99Z" fill="url(#paint12_linear_21_18318)"/>
<path style="mix-blend-mode:multiply" opacity="0.5" fill-rule="evenodd" clip-rule="evenodd" d="M1221.27 774.211C1221.27 774.211 1216.08 765.511 1209.81 762.541C1209.81 762.541 1215.66 760.541 1216.81 759.351C1220.51 762.472 1223.67 766.19 1226.15 770.351L1221.27 774.211Z" fill="url(#paint13_linear_21_18318)" fill-opacity="0.66"/>
<path fill-rule="evenodd" clip-rule="evenodd" d="M1318.16 1032.29C1318.16 1032.29 1349.78 1032.54 1353.16 1030.98C1355.55 1029.82 1357.82 1028.44 1359.94 1026.85V1028.28L1373.58 1027.77C1374.06 1022.95 1373.88 1018.08 1373.04 1013.31C1361.44 997.63 1346.7 1001.66 1346.7 1001.66C1345.81 1003.18 1344.84 1004.65 1343.78 1006.06C1337.74 1014.11 1329.59 1020.34 1320.23 1024.06C1319.44 1024.81 1318.79 1025.7 1318.31 1026.68C1317.89 1027.55 1317.66 1028.5 1317.63 1029.47C1317.61 1030.44 1317.79 1031.4 1318.16 1032.29V1032.29Z" fill="#0D2275"/>
<path fill-rule="evenodd" clip-rule="evenodd" d="M1288.91 605.54C1287.69 605.98 1286.42 606.259 1285.12 606.37C1283.25 606.48 1277.29 606.7 1275.12 608.16C1275.98 609.229 1277.05 610.1 1278.28 610.715C1279.5 611.329 1280.84 611.672 1282.21 611.72C1283.18 611.688 1284.11 611.401 1284.93 610.89C1285.59 609.904 1286.53 609.149 1287.64 608.73C1288.35 607.801 1288.78 606.699 1288.91 605.54V605.54Z" fill="url(#paint14_linear_21_18318)"/>
<path fill-rule="evenodd" clip-rule="evenodd" d="M1287.61 608.73L1284.9 610.89C1284.9 610.89 1286.76 606.35 1287.61 608.73Z" fill="#357A6B"/>
<path fill-rule="evenodd" clip-rule="evenodd" d="M1299.23 609.48C1297.67 608.747 1295.94 608.477 1294.23 608.7C1294.08 608.902 1293.99 609.145 1293.98 609.398C1293.96 609.651 1294.02 609.902 1294.15 610.12L1295.92 609.85C1295.55 611.206 1294.89 612.465 1293.98 613.542C1293.08 614.619 1291.95 615.488 1290.68 616.09C1286.25 618.3 1280.8 617.66 1280.8 617.66C1280.8 617.66 1287.55 619.17 1291.49 616.57C1293.92 614.903 1295.86 612.614 1297.11 609.94C1297.76 609.603 1298.5 609.444 1299.23 609.48V609.48Z" fill="url(#paint15_linear_21_18318)"/>
<path style="mix-blend-mode:multiply" opacity="0.71" fill-rule="evenodd" clip-rule="evenodd" d="M1317.25 598.17L1319.41 607.68C1319.41 607.68 1319.51 624.45 1306.87 632.68L1306.2 626.15C1306.2 626.15 1317.02 613.61 1317.25 598.17Z" fill="url(#paint16_linear_21_18318)"/>
<path fill-rule="evenodd" clip-rule="evenodd" d="M1331.4 627.91L1334.49 630.58C1334.49 630.58 1328.65 654.97 1321.33 667.48C1321.33 667.48 1303.45 667.69 1296.47 661.07C1296.47 661.07 1299 681.25 1303.27 690.07C1297.95 678.422 1294.48 666.011 1292.99 653.29L1302.56 633.57L1310.31 638.41L1316.47 635.41L1331.4 627.91Z" fill="#374FC7"/>
<path style="mix-blend-mode:multiply" fill-rule="evenodd" clip-rule="evenodd" d="M1262.47 550.28C1262.99 550.36 1263.56 550.43 1264.16 550.49C1263.6 550.379 1263.04 550.309 1262.47 550.28V550.28Z" fill="url(#paint17_linear_21_18318)"/>
<path fill-rule="evenodd" clip-rule="evenodd" d="M1262.81 577.23C1262.23 575.084 1261.93 572.873 1261.91 570.65C1260.36 568.731 1259.49 566.356 1259.42 563.89C1259.42 563.89 1264.01 555.6 1277.62 554.07C1277.62 554.07 1285.03 551.96 1291.18 555C1291.18 555 1277.88 561.6 1268.42 562C1268.42 562 1263.69 566.47 1265.71 575.06C1265.71 575.06 1265.81 567.83 1270.22 563.12C1270.22 563.12 1274.14 563.58 1281.11 561.72C1288.08 559.86 1292.62 556.38 1294.81 555.92C1297 555.46 1304.57 560.01 1305.65 561.92C1306.73 563.83 1306.9 566.2 1305.4 569.16C1305.4 569.16 1305.96 573.23 1309.56 579.16C1311.03 581.678 1312.67 584.093 1314.46 586.39L1318.14 582.17C1318.14 582.17 1320.81 564.17 1319.37 560.17C1319.37 560.17 1315.02 561.58 1306.53 558.23C1298.04 554.88 1292.45 552.64 1292.45 552.64C1292.45 552.64 1273.76 551.58 1264.24 550.44C1267.56 551.142 1270.78 552.278 1273.8 553.82C1273.8 553.82 1256.8 558.2 1255.24 562.77C1255.54 569.04 1262.28 576.67 1262.81 577.23Z" fill="#0C1F66"/>
<path fill-rule="evenodd" clip-rule="evenodd" d="M1314.61 585.911C1314.61 585.911 1317.08 578.681 1323.82 576.181C1323.82 576.181 1327.6 576.341 1330.44 581.541C1331.04 585.911 1330.62 590.363 1329.2 594.541C1326.82 601.941 1321.77 603.151 1319.93 603.111C1318.09 603.071 1315.81 602.041 1315.25 600.641C1314.69 599.241 1314.61 585.911 1314.61 585.911Z" fill="url(#paint18_linear_21_18318)"/>
<g style="mix-blend-mode:multiply" opacity="0.5">
<path fill-rule="evenodd" clip-rule="evenodd" d="M1329.61 584.91C1329.61 584.91 1326.96 581.18 1324.81 580.91C1322.66 580.64 1317.81 587.71 1316.37 592.53C1316.37 592.53 1322.79 584.2 1324.28 583.07C1325.77 581.94 1329.61 584.91 1329.61 584.91Z" fill="#143641"/>
</g>
<g style="mix-blend-mode:multiply" opacity="0.5">
<path fill-rule="evenodd" clip-rule="evenodd" d="M1322.1 584.22C1322.1 584.22 1323.92 585.62 1324.1 590.37C1324.28 595.12 1319.77 598.37 1319.77 598.37C1320.88 596.532 1321.54 594.46 1321.71 592.32C1321.72 591.425 1321.51 590.542 1321.11 589.746C1320.7 588.949 1320.1 588.264 1319.37 587.75L1322.1 584.22Z" fill="#143641"/>
</g>
<path fill-rule="evenodd" clip-rule="evenodd" d="M1332.37 628.91L1337.92 628.7C1337.92 628.7 1347.55 635.28 1351.59 645.33C1351.59 645.33 1340.27 647.79 1336.73 651.39C1336.73 651.39 1338.26 665 1337.73 672.39C1337.2 679.78 1306.54 716.39 1304.34 722.79C1304.34 722.79 1306.25 708.65 1308.52 701.02C1308.52 701.02 1324.44 666.16 1329.7 653.93C1332.79 646.808 1335.31 639.452 1337.23 631.93L1332.37 628.91Z" fill="#5268D7"/>
<path fill-rule="evenodd" clip-rule="evenodd" d="M1299.87 636.34C1292.96 642.975 1287.04 650.577 1282.31 658.91L1288.31 665.62C1288.31 665.62 1284.12 676.44 1284.88 684.71C1284.88 684.71 1295.76 701.71 1306.88 707.47L1308.47 700.96C1308.47 700.96 1301.78 688.31 1299.27 680.81C1293.64 663.95 1292.78 653.21 1292.78 653.21L1299.19 641.14L1299.87 636.34Z" fill="#5268D7"/>
<path fill-rule="evenodd" clip-rule="evenodd" d="M1310.9 638.18L1313.9 636.94C1313.9 636.94 1321.36 645.12 1321.78 656.12C1321.78 656.12 1333.68 641.91 1330.86 626.31C1330.86 626.31 1324.86 615.83 1323.67 615.47C1322.88 615.234 1322.08 615.057 1321.27 614.94L1321.96 617.47C1321.96 617.47 1322.79 624.68 1315.17 634.14C1315.21 634.14 1313.16 634.52 1310.9 638.18Z" fill="#21388C"/>
<path fill-rule="evenodd" clip-rule="evenodd" d="M1310.9 638.18L1306.09 636.52C1306.09 636.52 1298.26 645.18 1296.31 652.9C1297.02 647.555 1298.23 642.286 1299.9 637.16C1301.18 633.396 1303.39 630.015 1306.32 627.33C1306.32 627.33 1307.16 632.33 1306.76 634.05C1308 635.559 1309.39 636.943 1310.9 638.18V638.18Z" fill="#21388C"/>
<path style="mix-blend-mode:multiply" opacity="0.4" fill-rule="evenodd" clip-rule="evenodd" d="M1366.28 732.371C1366.87 739.891 1364.01 756.111 1364.01 756.111C1369.95 754.561 1381.07 757.731 1387.01 764.011C1390.41 767.561 1391.64 773.731 1392.08 778.411C1393.79 775.121 1397.67 767.101 1397.94 761.781C1398.17 757.491 1397.22 750.781 1395.82 744.781C1396.64 757.491 1390.33 765.071 1390.33 765.071C1381.16 754.331 1365.82 752.911 1365.82 752.911L1369.32 737.331C1371.21 733.431 1376.54 732.521 1376.54 732.521C1376.15 731.121 1368.31 725.391 1368.31 725.391C1364.46 720.541 1358.18 703.941 1357.31 701.681C1358.48 705.871 1359.54 708.681 1359.54 708.681C1359.54 708.681 1365.69 724.831 1366.28 732.371Z" fill="url(#paint19_linear_21_18318)" fill-opacity="0.66"/>
<path style="mix-blend-mode:multiply" opacity="0.6" fill-rule="evenodd" clip-rule="evenodd" d="M1324.69 889.73C1321.88 876.19 1314.42 847.73 1313.95 845.99L1323.85 898.09L1324.66 895.14C1329.23 908.484 1335.96 920.984 1344.59 932.14C1355.27 930.14 1363.9 923.52 1369.77 917.57C1361.99 922.4 1352.37 926.75 1344.45 925.41C1344.45 925.39 1327.59 903.7 1324.69 889.73Z" fill="url(#paint20_linear_21_18318)" fill-opacity="0.66"/>
<path fill-rule="evenodd" clip-rule="evenodd" d="M1383.83 765.45C1385.94 767.594 1387.53 770.185 1388.5 773.03C1388.89 774.109 1388.97 775.272 1388.74 776.395C1388.51 777.517 1387.99 778.556 1387.21 779.4L1382.53 779.57C1381.06 781.346 1380.24 783.573 1380.21 785.88L1382.02 787.96C1382.02 787.96 1376.65 788.87 1373.88 788.26V789.38C1371.59 789.553 1369.28 789.398 1367.03 788.92C1364.97 788.982 1362.91 788.787 1360.89 788.34C1360.35 787.6 1360.01 786.737 1359.89 785.83C1358.44 785.838 1357.01 785.553 1355.68 784.99C1354.76 778.588 1355.21 772.065 1357 765.85C1357 765.85 1357.6 765.52 1361.38 765.68C1361.38 765.68 1363.18 764.68 1367.46 764.68C1367.49 764.64 1377.46 764.06 1383.83 765.45Z" fill="url(#paint21_linear_21_18318)"/>
<path style="mix-blend-mode:multiply" opacity="0.6" fill-rule="evenodd" clip-rule="evenodd" d="M1308.51 700.98C1308.51 700.98 1305.58 717.98 1304.33 722.75C1303.08 727.52 1307.39 766.99 1307.39 766.99C1307.39 766.99 1311.48 827.21 1311.81 833.92L1324.66 895.14C1324.66 895.14 1311.02 846.9 1309.43 831.67C1307.84 816.44 1307.43 768.01 1307.43 768.01C1307.43 768.01 1301.37 731.24 1302.12 723.86C1302.87 716.48 1303.12 690.01 1303.12 690.01L1308.51 700.98Z" fill="url(#paint22_linear_21_18318)" fill-opacity="0.66"/>
<path style="mix-blend-mode:multiply" opacity="0.4" fill-rule="evenodd" clip-rule="evenodd" d="M1220.9 759.22C1221.55 759.85 1231.96 770.08 1233.98 783.1C1234.84 782.5 1262.57 763.35 1274.4 741.1C1275.51 733.491 1277.35 726.006 1279.89 718.75C1281.85 713.476 1284.27 708.389 1287.14 703.55L1285.46 691.55C1285.46 691.55 1277.2 719.26 1273.7 727.64C1273.7 727.64 1260.19 725.11 1254.45 725.64C1254.45 725.64 1265.22 730.13 1268.66 736.27C1268.66 736.27 1257.92 728.27 1249.77 726.72L1249.9 729.23C1249.9 729.23 1258.68 730.97 1265.29 740.23C1265.29 740.23 1247 772.23 1236.57 777.71C1236.59 777.7 1228.77 763.71 1220.9 759.22Z" fill="url(#paint23_linear_21_18318)" fill-opacity="0.66"/>
<path style="mix-blend-mode:multiply" opacity="0.4" fill-rule="evenodd" clip-rule="evenodd" d="M1342.75 1007.91L1346.75 1001.64C1351.19 1001.34 1355.64 1002.07 1359.75 1003.79C1366.09 1006.61 1373.06 1013.29 1373.06 1013.29L1373.29 1019.4C1373.29 1019.4 1376.48 1019.22 1378.13 1017.98L1377.61 1016.17C1376.65 1013.21 1375.1 1010.48 1373.06 1008.14C1371.01 1005.8 1368.51 1003.9 1365.71 1002.55C1355.95 997.611 1343.71 997.421 1341.35 999.551C1341.55 1002.38 1342.02 1005.17 1342.75 1007.91Z" fill="url(#paint24_linear_21_18318)" fill-opacity="0.66"/>
<path style="mix-blend-mode:multiply" opacity="0.86" fill-rule="evenodd" clip-rule="evenodd" d="M1318.16 1032.29C1318.16 1032.29 1349.78 1032.54 1353.16 1030.98C1355.55 1029.82 1357.82 1028.44 1359.94 1026.85V1028.28L1373.58 1027.77C1374.06 1022.95 1373.88 1018.08 1373.04 1013.31C1361.44 997.63 1346.7 1001.66 1346.7 1001.66C1345.81 1003.18 1344.84 1004.65 1343.78 1006.06V1006.14C1343.78 1006.14 1355.84 1007.01 1366.24 1017.84C1360.85 1022.75 1354.32 1026.22 1347.24 1027.94C1335.37 1030.83 1318.31 1026.69 1318.31 1026.69C1317.89 1027.56 1317.66 1028.51 1317.64 1029.47C1317.61 1030.44 1317.79 1031.4 1318.16 1032.29V1032.29Z" fill="url(#paint25_linear_21_18318)" fill-opacity="0.66"/>
<g style="mix-blend-mode:multiply" opacity="0.5">
<path fill-rule="evenodd" clip-rule="evenodd" d="M1397.99 760.08C1396.15 750.923 1393.5 741.948 1390.07 733.26C1384.07 717.67 1375.35 690.36 1372.53 676.64C1369.71 662.92 1365.34 650.38 1363.35 648.05C1361.36 645.72 1353.14 644.35 1349.97 641.96C1349.97 641.96 1339.89 632.51 1337.97 631.08L1335.14 631.18L1332.36 628.87L1331.19 627.87C1331.19 627.87 1324.94 619.13 1323.79 618.57C1323.24 618.257 1322.62 618.088 1321.99 618.08C1321.99 618.08 1317.18 608.19 1316.9 602.3C1316.9 602.3 1324.52 601.5 1327.14 594.1C1329.76 586.7 1326.93 580.3 1324.74 577.98C1324.74 577.98 1318.98 578.72 1316.46 582.25C1316.46 582.25 1318.21 563.48 1317.11 560.51C1316.01 557.54 1301.66 551.93 1297.02 551.44C1297.02 551.44 1310.48 551.9 1319.33 560.22C1319.33 560.22 1320.33 567.22 1318.33 579.87C1319.76 578.137 1321.65 576.849 1323.79 576.16C1323.79 576.16 1328.15 576.44 1330.41 581.52C1330.41 581.52 1331 589.76 1328.92 595.95C1328.38 597.693 1327.38 599.26 1326.03 600.49C1324.68 601.72 1323.03 602.569 1321.24 602.95L1318.37 602.82L1321.69 614.88C1321.69 614.88 1322.48 614.15 1323.69 615.42C1324.9 616.69 1330.88 626.26 1330.88 626.26L1333.57 628.8L1337.47 628.66C1337.47 628.66 1342.98 630.66 1348.19 639.08C1350.38 640.194 1352.69 641.033 1355.08 641.58C1357.46 642.039 1359.87 642.373 1362.29 642.58C1364.22 643.521 1365.85 644.996 1366.97 646.83C1368.81 649.83 1379.68 690.11 1381.79 697.54C1383.9 704.97 1393.79 738.1 1395.79 744.65C1397.24 749.665 1397.98 754.859 1397.99 760.08V760.08Z" fill="#2A3491"/>
</g>
<path fill-rule="evenodd" clip-rule="evenodd" d="M1374.9 788.41C1373.74 783.749 1373.7 778.88 1374.78 774.2C1374.78 774.2 1371.61 781.9 1373.92 789.38L1374.9 788.41Z" fill="url(#paint26_linear_21_18318)"/>
<path fill-rule="evenodd" clip-rule="evenodd" d="M1367.07 788.91C1367.07 788.91 1365.7 786.58 1366 779.36C1366.29 772.5 1367.08 770.87 1367.08 770.87C1367.08 770.87 1365.43 773.71 1365.08 779.97C1364.73 786.23 1366.2 788.97 1366.2 788.97L1367.07 788.91Z" fill="url(#paint27_linear_21_18318)"/>
<path fill-rule="evenodd" clip-rule="evenodd" d="M1359.92 785.831C1359.24 780.68 1359.24 775.461 1359.92 770.311C1359.92 770.311 1357.72 779.461 1358.49 785.741C1358.96 785.818 1359.44 785.848 1359.92 785.831V785.831Z" fill="url(#paint28_linear_21_18318)"/>
<path fill-rule="evenodd" clip-rule="evenodd" d="M1268.09 606.911C1268.09 607.371 1268.18 607.831 1268.24 608.281C1268.46 609.988 1268.8 611.678 1269.24 613.341C1269.37 613.871 1269.54 614.401 1269.7 614.911C1270.11 616.085 1270.63 617.214 1271.27 618.281C1274.85 624.069 1280.02 628.709 1286.16 631.651C1287.84 632.442 1289.63 633 1291.46 633.311C1292.78 633.534 1294.14 633.534 1295.46 633.311C1300.63 632.421 1305.55 627.741 1309.34 621.931C1311.5 618.608 1313.28 615.048 1314.63 611.321C1314.76 610.971 1314.88 610.631 1315 610.321C1313.58 608.058 1311.95 605.935 1310.13 603.981C1307.23 600.711 1304.3 597.851 1304.3 597.851C1304.3 597.851 1288.71 601.151 1287.57 601.021C1286.37 600.666 1285.19 600.204 1284.07 599.641L1283.76 599.521C1282.98 599.135 1282.15 598.869 1281.29 598.731C1279.89 598.731 1276.22 600.441 1276.22 600.441C1275.2 602.323 1273.9 604.036 1272.36 605.521C1271.16 606.504 1269.64 607 1268.09 606.911V606.911Z" fill="url(#paint29_linear_21_18318)"/>
<path style="mix-blend-mode:multiply" opacity="0.3" fill-rule="evenodd" clip-rule="evenodd" d="M1281.26 598.69L1281.5 605.22L1288.9 605.57L1306.7 600.81L1290.23 603.11L1287.6 601C1285.53 600.109 1283.42 599.338 1281.26 598.69V598.69Z" fill="url(#paint30_linear_21_18318)"/>
<path style="mix-blend-mode:multiply" opacity="0.62" fill-rule="evenodd" clip-rule="evenodd" d="M1300.28 622.45L1311.82 613.58C1309.14 619.88 1297.96 629.82 1297.96 629.82L1295.18 631.82L1291.5 633.33C1292.82 633.554 1294.18 633.554 1295.5 633.33C1303.67 631.94 1311.16 621.06 1314.68 611.33C1314.81 610.98 1314.93 610.64 1315.05 610.33C1313.63 608.068 1312 605.945 1310.18 603.99L1309.29 603.53L1296.48 608.05L1281.63 607.45L1291.33 611.09L1303.01 608.73L1304.82 609.15L1297.64 620.62L1290.39 626.46L1300.28 622.45Z" fill="url(#paint31_linear_21_18318)"/>
<path style="mix-blend-mode:multiply" opacity="0.62" fill-rule="evenodd" clip-rule="evenodd" d="M1269.23 613.37C1269.36 613.9 1269.53 614.43 1269.69 614.94C1270.1 616.115 1270.62 617.244 1271.26 618.31L1271.51 615.1L1274.36 608.24L1269.23 613.37Z" fill="url(#paint32_linear_21_18318)"/>
<g style="mix-blend-mode:multiply" opacity="0.4">
<path fill-rule="evenodd" clip-rule="evenodd" d="M1286.16 631.651C1287.84 632.442 1289.63 633 1291.46 633.311C1292.78 633.534 1294.14 633.534 1295.46 633.311C1300.63 632.421 1305.55 627.741 1309.34 621.931C1307.26 623.681 1298.89 630.581 1295.17 631.761C1293.44 632.361 1289.68 632.081 1286.16 631.651Z" fill="#774AA4"/>
</g>
<path style="mix-blend-mode:multiply" opacity="0.3" fill-rule="evenodd" clip-rule="evenodd" d="M1276.5 608.16L1278.57 614.83L1278.78 626.03L1276.5 608.16Z" fill="url(#paint33_linear_21_18318)"/>
<path fill-rule="evenodd" clip-rule="evenodd" d="M1305.16 598.66L1314.61 585.91L1315.52 583.82C1311.14 587.932 1307.36 592.645 1304.31 597.82L1305.16 598.66Z" fill="url(#paint34_radial_21_18319)"/>
<path fill-rule="evenodd" clip-rule="evenodd" d="M1314.77 609.871L1319.4 603.111L1320.93 603.061L1314.13 612.401L1314.77 609.871Z" fill="url(#paint35_radial_21_18319)"/>
<path style="mix-blend-mode:multiply" opacity="0.62" fill-rule="evenodd" clip-rule="evenodd" d="M1301.56 611.37C1301.56 611.37 1297.19 618.44 1295.56 620.01C1293.93 621.58 1283.22 626.42 1282.76 626.38C1282.3 626.34 1279.52 626 1279.52 626C1280.77 625.83 1282.01 625.569 1283.22 625.22C1284.64 624.75 1294.22 618.98 1294.69 618.06C1295.16 617.14 1301.56 611.37 1301.56 611.37Z" fill="url(#paint36_linear_21_18318)"/>
<path fill-rule="evenodd" clip-rule="evenodd" d="M1301.32 582.71L1288.35 585.49L1293.61 590.05L1301.41 585L1301.32 582.71Z" fill="url(#paint37_linear_21_18318)"/>
<path fill-rule="evenodd" clip-rule="evenodd" d="M1267.63 591.7L1271.17 594.22L1274.41 590.12L1267.58 590.38L1267.63 591.7Z" fill="url(#paint38_linear_21_18318)"/>
<path d="M1186 820.94V1046.91L1248 1052.91V820.94H1186Z" fill="url(#paint39_linear_21_18318)"/>
<path d="M1186 820.94V1046.91L1248 1052.91V820.94H1186Z" fill="url(#paint40_linear_21_18318)" stroke="black"/>
<path d="M1242 828.94L1248 1052.91L1308 1048.91V828.94H1242Z" fill="url(#paint41_linear_21_18318)"/>
<path d="M1242 828.94L1248 1052.91L1308 1048.91V828.94H1242Z" fill="url(#paint42_linear_21_18318)" stroke="black"/>
<path d="M1250 800.91C1248.23 799.99 1120 789.91 1120 789.91L1202 809.91L1395 828.91C1395 828.91 1255.14 803.59 1250 800.91Z" fill="#0D2350"/>
<path d="M1250 800.91C1248.23 799.99 1120 789.91 1120 789.91L1202 809.91L1395 828.91C1395 828.91 1255.14 803.59 1250 800.91Z" stroke="black"/>
<path d="M1217 801.91C1212.58 801.91 1209 802.36 1209 802.91C1209 803.46 1212.58 803.91 1217 803.91C1221.42 803.91 1225 803.46 1225 802.91C1225 802.36 1221.42 801.91 1217 801.91Z" fill="#0D2350"/>
<path d="M1217 801.91C1212.58 801.91 1209 802.36 1209 802.91C1209 803.46 1212.58 803.91 1217 803.91C1221.42 803.91 1225 803.46 1225 802.91C1225 802.36 1221.42 801.91 1217 801.91Z" stroke="black"/>
<path d="M1240 801.91C1235.58 801.91 1232 802.36 1232 802.91C1232 803.46 1235.58 803.91 1240 803.91C1244.42 803.91 1248 803.46 1248 802.91C1248 802.36 1244.42 801.91 1240 801.91Z" fill="#0D2350"/>
<path d="M1240 801.91C1235.58 801.91 1232 802.36 1232 802.91C1232 803.46 1235.58 803.91 1240 803.91C1244.42 803.91 1248 803.46 1248 802.91C1248 802.36 1244.42 801.91 1240 801.91Z" stroke="black"/>
<path d="M1259 806.91C1254.58 806.91 1251 807.36 1251 807.91C1251 808.46 1254.58 808.91 1259 808.91C1263.42 808.91 1267 808.46 1267 807.91C1267 807.36 1263.42 806.91 1259 806.91Z" fill="#0D2350"/>
<path d="M1259 806.91C1254.58 806.91 1251 807.36 1251 807.91C1251 808.46 1254.58 808.91 1259 808.91C1263.42 808.91 1267 808.46 1267 807.91C1267 807.36 1263.42 806.91 1259 806.91Z" stroke="black"/>
<path d="M1395 827.91L1203 805.91C1203 805.91 1120 785.63 1120 789.91C1120 790.69 1118 806.91 1118 806.91L1203 826.91L1396 847.91L1395 827.91Z" fill="url(#paint43_linear_21_18318)"/>
<path d="M1395 827.91L1203 805.91C1203 805.91 1120 785.63 1120 789.91C1120 790.69 1118 806.91 1118 806.91L1203 826.91L1396 847.91L1395 827.91Z" stroke="black"/>
<path fill-rule="evenodd" clip-rule="evenodd" d="M302.197 1037.58C302.197 1038.71 310.197 1050.02 310.197 1050.02L313.937 1046.43C327.657 1046.22 340.257 1053.66 340.257 1053.66L343.137 1060.83C343.137 1060.83 349.137 1054.14 349.947 1052.17L350.017 1051.87C349.877 1050.59 346.407 1048.13 346.407 1048.13C346.407 1048.13 351.947 1032.13 352.217 1029.54C352.487 1026.95 347.047 1022.42 347.047 1022.42C346.047 1011.34 355.297 982.011 355.827 977.541C356.357 973.071 358.907 944.881 360.027 942.151L360.147 941.81L360.287 941.411L360.527 940.76L361.307 938.451L361.487 937.901L361.777 937.031C362.777 934.081 364.017 930.161 365.327 926.031C368.137 917.221 368.327 913.421 369.087 910.031C370.087 905.221 372.747 877.901 374.477 860.681L374.557 859.841L374.707 858.281C374.707 857.741 374.807 857.221 374.857 856.731L375.047 854.731L375.367 851.461L377.717 850.871C377.717 850.871 390.837 927.63 390.337 930.38C389.837 933.13 383.687 955.111 383.687 955.111C381.517 978.231 389.317 1028.32 389.317 1028.32C389.317 1028.32 384.417 1039.49 384.387 1041.09V1041.26C384.877 1043.07 392.827 1049.12 392.827 1049.12L392.617 1059.52L396.507 1061.94L396.557 1059.5C396.557 1059.5 402.147 1050.9 409.027 1046.58C415.907 1042.26 428.537 1035.17 428.537 1035.17L428.887 1036.17L430.887 1033.51L426.057 1026.24C426.057 1026.24 431.607 1020.46 431.127 1019.65C430.647 1018.84 425.957 1014.92 425.957 1014.92C422.297 991.43 424.797 944.341 424.797 944.341L425.797 934.901C425.097 891.221 418.797 830.491 418.797 830.491L420.367 827.63L419.447 824.75C385.547 829.11 334.977 803.021 334.977 803.021L328.307 824.411L330.987 833.221C333.167 868.011 326.227 934.81 326.227 934.81L323.467 937.63L324.587 945.141L315.777 963.141C313.097 980.991 310.337 1023 309.837 1030.78C309.787 1031.59 309.767 1032.03 309.767 1032.03C309.767 1032.03 302.217 1036.47 302.197 1037.58Z" fill="#1F307A"/>
<path fill-rule="evenodd" clip-rule="evenodd" d="M395.878 1062.74L482.218 1065.34L477.828 1062.11L476.448 1061.11C476.448 1061.11 448.778 1049.39 443.068 1046.03C438.743 1043.46 434.654 1040.51 430.848 1037.22L429.598 1036.12C428.938 1035.52 428.598 1035.12 428.598 1035.12H428.548C427.698 1035.44 415.918 1039.81 409.878 1044.3C403.628 1048.95 396.618 1059.44 396.618 1059.44L395.878 1062.74Z" fill="#0D2275"/>
<path fill-rule="evenodd" clip-rule="evenodd" d="M395.877 1062.74L395.737 1069.75L484.307 1071.54L482.217 1065.34L395.877 1062.74Z" fill="#0E1B5E"/>
<path fill-rule="evenodd" clip-rule="evenodd" d="M304.878 1070.69C308.148 1071.04 311.638 1071.28 315.158 1071.47C325.158 1071.98 335.438 1071.9 341.768 1071.76C344.688 1071.68 346.768 1071.62 347.658 1071.57H348.088L347.228 1066.87C344.415 1062.76 342.089 1058.33 340.298 1053.68C323.068 1043.68 313.978 1046.45 313.978 1046.45L310.238 1050.04C305.648 1058.28 304.878 1070.69 304.878 1070.69Z" fill="#0D2275"/>
<path fill-rule="evenodd" clip-rule="evenodd" d="M303.997 1077.35C304.667 1077.48 305.357 1077.62 306.077 1077.72C318.297 1079.72 334.957 1079.09 343.077 1078.6C346.077 1078.41 347.947 1078.24 347.947 1078.24L348.077 1071.57H347.647H341.717C337.547 1071.57 333.447 1071.5 329.557 1071.44C315.757 1071.2 304.867 1070.67 304.867 1070.67L303.997 1077.35Z" fill="#0E1B5E"/>
<path fill-rule="evenodd" clip-rule="evenodd" d="M302.197 1037.58C302.197 1038.71 310.197 1050.02 310.197 1050.02L313.937 1046.43C327.657 1046.22 340.257 1053.66 340.257 1053.66L343.137 1060.83C343.137 1060.83 349.137 1054.14 349.947 1052.17L350.017 1051.87L324.797 1040.25C332.181 1042.35 339.403 1044.98 346.407 1048.13C346.407 1048.13 351.947 1032.13 352.217 1029.54L330.217 1014.86C325.622 1003.17 322.791 990.871 321.817 978.351C324.667 994.981 337.817 1016.07 337.817 1016.07L347.027 1022.42C346.027 1011.34 355.277 982.011 355.807 977.541C356.337 973.071 358.887 944.881 360.007 942.151L360.127 941.811L360.267 941.411L360.507 940.761L361.287 938.451L361.467 937.901L361.757 937.031L345.957 944.841L331.167 933.841L329.527 906.261L336.157 929.341L333.837 874.901L342.087 848.381L361.087 841.751L370.237 851.071L367.757 901.171L365.237 926.171L365.307 925.991C368.117 917.181 368.307 913.381 369.067 909.991C370.067 905.181 372.727 877.861 374.457 860.641L374.537 859.801L374.687 858.241L374.837 856.691L375.027 854.691L375.347 851.421L377.697 850.831C377.697 850.831 390.817 927.591 390.317 930.341C389.817 933.091 383.667 955.071 383.667 955.071C381.497 978.191 389.297 1028.28 389.297 1028.28L409.687 1008.5L403.317 1023.9L384.367 1041.05V1041.22C384.857 1043.03 392.807 1049.08 392.807 1049.08L392.597 1059.48L396.487 1061.9L396.537 1059.46C396.537 1059.46 402.127 1050.86 409.007 1046.54C415.887 1042.22 428.517 1035.13 428.517 1035.13L428.867 1036.13L430.867 1033.47L410.867 1039.12L426.057 1026.2C426.057 1026.2 431.607 1020.42 431.127 1019.61L397.737 1038.9L416.737 1023.14L425.987 1014.93C422.327 991.441 424.827 944.351 424.827 944.351L425.827 934.911L424.217 936.461L412.037 930.901L400.277 839.391L407.137 836.991L418.827 830.481L420.397 827.621L419.477 824.741C385.577 829.101 335.007 803.011 335.007 803.011L328.337 824.401L331.017 833.211C333.197 868.001 326.257 934.801 326.257 934.801L323.497 937.621L324.617 945.131L315.807 963.131C313.127 980.981 310.367 1022.99 309.867 1030.77C323.007 1030.21 331.557 1033.2 331.557 1033.2C320.077 1033.26 302.197 1037.58 302.197 1037.58Z" fill="#0E1B5E"/>
<g style="mix-blend-mode:multiply" opacity="0.4">
<g style="mix-blend-mode:multiply" opacity="0.4">
<path fill-rule="evenodd" clip-rule="evenodd" d="M377.737 850.84L395.337 836.74L389.967 844.92L395.507 883.59L395.727 902.49L392.927 874.84L384.787 869.95L390.357 930.35L377.737 850.84Z" fill="#774AA4"/>
</g>
</g>
<g style="mix-blend-mode:multiply" opacity="0.4">
<g style="mix-blend-mode:multiply" opacity="0.4">
<path fill-rule="evenodd" clip-rule="evenodd" d="M389.337 1028.29C389.337 1028.29 384.437 1039.46 384.407 1041.06V1041.23C384.897 1043.04 392.847 1049.09 392.847 1049.09L392.637 1059.49L396.527 1061.91L396.577 1059.47C396.577 1059.47 402.167 1050.87 409.047 1046.55C415.927 1042.23 428.557 1035.14 428.557 1035.14L428.907 1036.14L430.907 1033.48L426.077 1026.21C426.077 1026.21 431.627 1020.43 431.147 1019.62L397.737 1038.9L425.997 1014.9C422.337 991.41 424.837 944.32 424.837 944.32L425.837 934.88L424.227 936.43L412.037 930.9L396.977 893.9L389.977 844.9L377.747 850.83C377.747 850.83 390.867 927.59 390.367 930.34C389.867 933.09 383.717 955.07 383.717 955.07C381.537 978.2 389.337 1028.29 389.337 1028.29Z" fill="#774AA4"/>
</g>
</g>
<g style="mix-blend-mode:multiply" opacity="0.4">
<g style="mix-blend-mode:multiply" opacity="0.4">
<path fill-rule="evenodd" clip-rule="evenodd" d="M355.957 975.561L343.397 1001.9L339.397 1017.05L347.047 1022.32C347.047 1022.32 346.947 1011.92 349.457 1003.41C351.967 994.901 355.947 977.961 355.957 975.561Z" fill="#774AA4"/>
</g>
</g>
<g style="mix-blend-mode:multiply" opacity="0.4">
<g style="mix-blend-mode:multiply" opacity="0.4">
<path fill-rule="evenodd" clip-rule="evenodd" d="M302.197 1037.58L310.197 1050.02L313.937 1046.43C313.937 1046.43 324.987 1044.11 340.257 1053.66L343.137 1060.83C345.808 1058.14 348.121 1055.11 350.017 1051.83L324.797 1040.21L331.537 1033.21C331.537 1033.21 308.787 1034.84 302.197 1037.58Z" fill="#774AA4"/>
</g>
</g>
<g style="mix-blend-mode:multiply" opacity="0.54">
<g style="mix-blend-mode:multiply" opacity="0.54">
<path fill-rule="evenodd" clip-rule="evenodd" d="M418.828 830.47L407.138 836.98L393.668 838.08L395.818 834.06L383.038 837.86L346.208 813.01L332.758 826.54L341.998 811.27L334.458 804.77L335.018 803L419.478 824.73L420.398 827.61L418.828 830.47Z" fill="#774AA4"/>
</g>
</g>
<g style="mix-blend-mode:multiply" opacity="0.4">
<g style="mix-blend-mode:multiply" opacity="0.4">
<path fill-rule="evenodd" clip-rule="evenodd" d="M361.797 936.96L356.647 942.84L340.647 959.71C340.647 959.71 344.647 945.79 346.067 944.76C347.487 943.73 361.797 936.96 361.797 936.96Z" fill="#774AA4"/>
</g>
</g>
<path fill-rule="evenodd" clip-rule="evenodd" d="M292.037 735.83C292.037 735.83 296.257 741.99 302.217 749.35C302.219 749.365 302.224 749.379 302.233 749.391C302.242 749.403 302.254 749.413 302.267 749.42C306.747 755.075 311.637 760.392 316.897 765.33C317.397 765.79 317.897 766.24 318.387 766.67C329.977 776.97 337.937 781.38 337.937 781.38L342.937 764.75L340.867 732L340.507 726.44L292.037 735.83Z" fill="#1F318B"/>
<g style="mix-blend-mode:multiply" opacity="0.4">
<g style="mix-blend-mode:multiply" opacity="0.4">
<path fill-rule="evenodd" clip-rule="evenodd" d="M302.218 749.351L302.298 749.431L318.418 766.681C330.008 776.981 337.968 781.391 337.968 781.391L342.968 764.761L340.898 732.011L339.738 730.511L333.028 735.381L334.188 741.311L311.268 747.221L326.158 746.401L310.018 754.531L302.278 749.361L302.218 749.351Z" fill="#774AA4"/>
</g>
</g>
<path fill-rule="evenodd" clip-rule="evenodd" d="M495.918 728.6C495.918 728.6 495.648 740.43 491.978 746.9C491.978 746.9 479.098 733.01 489.058 716.04L495.918 728.6Z" fill="#050E30"/>
<path d="M536.998 700.64C536.998 700.64 538.478 698.97 533.858 706.64L525.528 708.56L519.648 716.64C519.648 716.64 516.588 720.53 512.528 720.29C508.468 720.05 504.878 716.29 504.878 716.29C504.878 716.29 516.318 694.53 520.178 692.53C524.038 690.53 536.998 700.64 536.998 700.64Z" fill="url(#paint44_linear_21_18318)"/>
<path d="M487.647 738.51C489.718 734.39 492.767 730.84 496.527 728.17C504.717 728.98 513.657 727.96 514.477 727.1C515.387 726.1 521.237 716.19 524.707 712.59C528.937 708.22 535.347 706.7 535.347 706.7L535.647 703.9C530.147 700.61 523.887 702.26 522.027 703.5C520.167 704.74 515.877 714.01 515.877 714.01C514.087 716.13 510.637 715.18 510.637 715.18C510.637 715.18 512.187 706.7 514.947 701.56C516.583 698.488 518.766 695.74 521.387 693.45C522.077 693.36 526.497 695.45 526.497 695.45C530.967 700.58 539.137 700.92 539.137 700.92C539.857 700.58 540.491 700.08 540.988 699.458C541.486 698.836 541.834 698.108 542.007 697.33C531.917 695.2 523.317 683.24 523.317 683.24C523.317 683.24 520.317 681.02 518.967 681.8C517.617 682.58 510.197 693.57 502.967 702.12C495.737 710.67 482.307 722.12 482.307 722.12C481.307 735.74 487.647 738.51 487.647 738.51Z" fill="url(#paint45_linear_21_18318)"/>
<path fill-rule="evenodd" clip-rule="evenodd" d="M429.907 735.12C429.907 735.12 430.277 738.24 431.247 742.82C432.449 748.674 434.18 754.407 436.417 759.95C441.347 771.79 446.417 778.37 447.197 778.6C447.977 778.83 461.317 774.21 467.247 769.34C473.177 764.47 482.317 752.03 482.317 752.03L492.937 751.03C496.867 742.26 495.937 728.58 495.937 728.58L495.217 729.12C495.336 735.203 494.235 741.249 491.977 746.9C484.217 737.04 488.167 716.84 488.167 716.84L489.057 716.04L487.577 715.15L487.097 715.58L486.807 715.82C485.207 717.24 481.457 720.46 478.467 722.82C477.338 723.741 476.122 724.552 474.837 725.24C473.187 725.94 470.597 726.95 468.237 727.83C465.457 728.83 463.057 729.74 463.057 729.74L462.717 728.98L460.647 724.08H458.897L454.897 719.62C454.897 719.62 454.157 679.38 452.337 680.27C451.736 680.604 451.203 681.048 450.767 681.58C442.747 690.44 429.907 735.12 429.907 735.12Z" fill="#1F307A"/>
<path fill-rule="evenodd" clip-rule="evenodd" d="M431.247 742.82C432.449 748.675 434.18 754.408 436.417 759.95C441.347 771.79 446.417 778.37 447.197 778.6C447.977 778.83 461.317 774.21 467.247 769.34C473.177 764.47 482.317 752.03 482.317 752.03L492.937 751.03C480.847 735.59 487.577 715.12 487.577 715.12L487.097 715.55L486.807 715.79L478.507 722.67V722.74L468.067 739.9L445.187 757L468.187 727.77C465.407 728.77 463.007 729.68 463.007 729.68L462.667 728.92L443.667 744.43L451.387 730.56L458.777 724.05L454.777 719.59C454.777 719.59 454.037 679.35 452.217 680.24C451.616 680.575 451.084 681.019 450.647 681.55L443.347 695.9L431.247 742.82Z" fill="#1F318B"/>
<path d="M421.648 646.121C421.648 646.121 421.058 651.261 421.098 651.691C421.138 652.121 422.098 652.981 422.098 652.981C422.098 652.981 423.218 671.551 414.448 679.661C414.448 679.661 398.358 663.871 396.108 656.341C393.858 648.811 394.168 636.531 394.168 636.531C394.168 636.531 402.168 622.671 403.718 616.431L421.648 646.121Z" fill="url(#paint46_linear_21_18318)"/>
<path fill-rule="evenodd" clip-rule="evenodd" d="M421.647 658.961C421.647 658.961 417.967 665.671 414.647 665.851C408.907 666.161 399.367 658.511 399.367 658.511C399.367 658.511 406.787 675.361 415.477 681.511C419.441 674.651 421.566 666.884 421.647 658.961Z" fill="#1F307A"/>
<g style="mix-blend-mode:multiply" opacity="0.5">
<g style="mix-blend-mode:multiply" opacity="0.5">
<path fill-rule="evenodd" clip-rule="evenodd" d="M421.647 646.12L421.157 650.67C421.157 650.67 424.647 660.84 416.847 675.27C416.847 675.27 420.847 664.81 418.937 659.03C414.258 655.643 410.539 651.098 408.147 645.84C404.147 637.06 400.987 623.49 400.987 623.49L401.347 622.7L404.347 620.7L421.647 646.12Z" fill="#8B009A"/>
</g>
</g>
<path d="M406.648 632.801C408.578 635.231 421.338 646.731 426.398 649.221C431.458 651.711 438.308 651.061 440.328 649.991C442.348 648.921 453.238 629.761 453.918 623.801C454.223 620.955 453.881 618.076 452.918 615.381C452.366 613.924 451.919 612.431 451.578 610.911C451.118 607.831 456.298 595.681 455.528 591.111C454.978 587.681 449.528 579.651 442.528 575.201L442.398 575.111C441.667 574.637 440.905 574.213 440.118 573.841C438.495 573.031 436.753 572.484 434.958 572.221C430.871 571.712 426.734 571.753 422.658 572.341H422.338C413.338 573.651 404.888 577.481 403.198 583.641C400.648 592.781 404.698 630.371 406.648 632.801Z" fill="url(#paint47_linear_21_18318)"/>
<path d="M406.587 607.38C406.587 607.38 401.767 597.5 398.977 597.54C397.217 597.54 392.697 598.69 391.297 602.47C390.467 604.71 393.417 616.23 396.417 619.89C398.727 622.71 402.937 623.25 404.467 622.28C405.997 621.31 407.647 609.54 406.587 607.38Z" fill="url(#paint48_linear_21_18318)"/>
<path style="mix-blend-mode:multiply" opacity="0.58" fill-rule="evenodd" clip-rule="evenodd" d="M405.058 588.46L407.998 608.6C407.998 608.6 409.928 603.71 410.668 603.12C411.408 602.53 417.068 602.07 417.068 602.07C417.068 602.07 428.198 610.71 432.928 611.07C437.658 611.43 439.928 592.9 439.928 592.9C443.729 592.358 447.605 592.916 451.098 594.51C451.098 594.51 444.838 606.9 444.278 609.9C443.718 612.9 449.048 616.31 452.878 615.43C452.327 613.974 451.879 612.48 451.538 610.96C451.078 607.88 456.258 595.73 455.488 591.16C454.938 587.73 449.488 579.7 442.488 575.25L442.358 575.16L440.078 573.89L434.388 570.7L422.648 572.34H422.328L412.198 575.61L405.058 588.46Z" fill="url(#paint49_linear_21_18318)"/>
<path d="M401.648 599.41C401.648 599.41 406.108 604.41 408.008 608.6C407.836 605.787 407.893 602.964 408.178 600.16C408.668 596.16 413.108 592.84 414.508 590.97C415.908 589.1 416.508 582.88 416.588 581.12C416.668 579.36 418.838 578.96 418.838 578.96L415.838 576.61C416.168 576.3 422.108 577.97 422.108 577.97C422.123 577.949 422.144 577.932 422.168 577.92C422.168 577.92 422.228 577.92 422.258 577.84C423.108 577.16 427.768 573.46 429.778 573.56C429.778 573.56 441.368 583.07 445.298 584.9C448.212 586.171 451.221 587.211 454.298 588.01C454.864 589.226 455.284 590.505 455.548 591.82C455.548 592.76 452.808 604.4 452.808 604.4C452.808 604.4 464.708 593.97 464.498 584.4C460.226 583.07 456.181 581.101 452.498 578.56L452.338 578.4C451.266 577.657 450.263 576.82 449.338 575.9C448.928 575.49 448.498 575.08 448.098 574.65L448.018 574.58C442.698 569.24 438.348 564.58 432.738 565.03C426.668 565.53 419.088 571.12 411.838 574.57C404.588 578.02 403.628 577.57 400.838 579.77C400.568 580.007 400.37 580.316 400.268 580.66C398.758 584.9 401.648 599.41 401.648 599.41Z" fill="#1A328A"/>
<path fill-rule="evenodd" clip-rule="evenodd" d="M331.647 800.081C341.167 810.461 384.327 827.591 396.277 827.831C408.227 828.071 421.047 824.291 421.047 824.291C421.047 824.291 419.507 811.411 419.557 809.171C419.607 806.931 425.367 794.531 425.377 793.781C425.387 793.031 421.647 789.561 421.647 789.561C421.647 789.191 421.647 788.811 421.737 788.391C422.897 775.941 431.867 746.741 431.867 746.741C431.867 746.741 437.467 737.811 438.347 736.551C439.227 735.291 440.347 731.081 441.707 722.811C442.567 717.441 445.937 708.061 448.197 702.131C449.407 698.921 450.307 696.741 450.307 696.741C450.307 696.741 453.157 681.501 452.217 680.241C451.277 678.981 441.957 672.881 439.967 671.141C437.977 669.401 426.907 657.901 426.907 657.901L423.197 651.351L421.197 650.671C421.197 650.671 422.827 655.061 420.857 664.001C419.997 667.836 418.691 671.558 416.967 675.091L416.917 675.191C416.201 676.702 415.393 678.169 414.497 679.581C414.497 679.581 403.157 667.661 399.007 657.481C396.407 650.748 394.794 643.675 394.217 636.481L396.047 633.221H394.287C394.287 633.221 378.427 645.551 376.067 646.221C373.707 646.891 344.067 656.091 344.067 656.091C338.867 671.921 335.917 733.651 335.917 733.651C335.917 733.651 338.637 764.951 338.577 767.651C338.517 770.351 332.127 798.201 331.717 799.941L331.647 800.081Z" fill="#3548A9"/>
<path fill-rule="evenodd" clip-rule="evenodd" d="M344.058 656.141C344.058 656.141 358.998 663.401 361.258 669.981C363.518 676.561 358.858 710.091 358.858 710.091L359.468 715.091L333.068 735.901C333.068 735.901 317.548 743.171 311.488 743.211C305.428 743.251 292.788 738.051 292.028 735.811C291.268 733.571 306.358 705.181 324.368 689.121L344.058 656.141Z" fill="#1F318B"/>
<path d="M439.488 588.28C439.166 590.259 438.269 592.098 436.908 593.57C436.908 593.57 428.618 592.47 426.598 592.48C424.578 592.49 420.598 593.48 420.318 593.23C420.038 592.98 422.028 590.11 426.088 588.81C430.148 587.51 439.488 588.28 439.488 588.28Z" fill="#050E30"/>
<path d="M454.468 597.189C454.468 597.189 453.838 596.66 453.588 596.67C452.188 596.67 449.198 599.219 448.838 599.059C448.478 598.899 450.838 593.269 455.558 591.819C455.558 591.819 455.878 595.069 454.468 597.189Z" fill="#050E30"/>
<path fill-rule="evenodd" clip-rule="evenodd" d="M449.478 621.55C449.478 621.55 449.788 624.06 442.038 623.85C441.146 623.491 440.283 623.063 439.458 622.57C439.191 621.836 438.791 621.158 438.278 620.57C437.529 620.195 436.731 619.929 435.908 619.78C435.908 619.78 434.648 618.9 434.508 617.9C434.508 617.9 434.848 618.44 438.508 619.2C442.168 619.96 445.118 618.82 449.478 621.55Z" fill="#D8646C"/>
<path style="mix-blend-mode:multiply" opacity="0.58" d="M449.477 621.55C450.757 622.65 444.817 612.47 444.137 610.55C443.457 608.63 440.667 608.75 439.627 609.15C438.587 609.55 438.517 616.72 438.487 617.94C438.457 619.16 442.597 619.55 442.597 619.55C442.597 619.55 447.577 619.9 449.477 621.55Z" fill="url(#paint50_linear_21_18318)"/>
<path style="mix-blend-mode:multiply" opacity="0.93" d="M422.157 577.9C422.757 577.41 427.687 573.43 429.767 573.54C429.767 573.54 441.357 583.05 445.287 584.88C448.201 586.151 451.21 587.191 454.287 587.99C454.853 589.206 455.272 590.485 455.537 591.8C455.537 592.74 452.797 604.38 452.797 604.38C452.797 604.38 464.697 593.95 464.487 584.38C464.487 584.38 452.607 584.78 444.487 580.38C436.367 575.98 430.367 569.73 430.057 570.05C429.747 570.37 422.917 577.16 422.157 577.9Z" fill="url(#paint51_linear_21_18318)"/>
<path style="mix-blend-mode:multiply" opacity="0.93" d="M452.548 578.56C449.854 577.78 447.203 576.855 444.608 575.79C441.608 574.46 438.018 570.23 438.018 570.23C438.018 570.23 444.018 574.39 447.908 574.45L452.548 578.56Z" fill="url(#paint52_linear_21_18318)"/>
<path style="mix-blend-mode:multiply" opacity="0.93" d="M401.648 599.411C401.648 599.411 406.108 604.411 408.008 608.601C407.836 605.787 407.893 602.965 408.178 600.161C408.668 596.161 413.108 592.841 414.508 590.971C415.908 589.101 416.508 582.881 416.588 581.121C416.668 579.361 418.838 578.961 418.838 578.961C417.69 578.867 416.538 578.844 415.388 578.891C414.578 579.011 412.828 583.521 409.758 585.141C407.148 586.511 401.848 582.021 400.368 580.671C398.758 584.901 401.648 599.411 401.648 599.411Z" fill="url(#paint53_linear_21_18318)"/>
<path style="mix-blend-mode:multiply" opacity="0.93" d="M422.157 577.901C422.157 577.901 415.217 572.901 413.547 573.731C411.877 574.561 410.747 575.091 410.747 575.091L415.827 576.591L422.157 577.901Z" fill="url(#paint54_linear_21_18318)"/>
<g style="mix-blend-mode:soft-light" opacity="0.5">
<g style="mix-blend-mode:soft-light" opacity="0.5">
<path d="M464.507 584.41C457.622 584.619 450.781 583.251 444.507 580.41C434.507 575.74 430.077 570.08 430.077 570.08C430.077 570.08 441.837 575.08 452.547 578.55C456.213 581.099 460.246 583.075 464.507 584.41Z" fill="#FFEDBB"/>
</g>
</g>
<g style="mix-blend-mode:soft-light" opacity="0.5">
<g style="mix-blend-mode:soft-light" opacity="0.5">
<path d="M415.378 578.901C415.378 578.901 410.838 580.821 407.288 580.671C403.738 580.521 402.348 578.671 402.348 578.671C402.348 578.671 400.638 579.611 400.348 580.671C400.348 580.671 404.918 585.431 407.738 585.531C410.558 585.631 415.378 578.901 415.378 578.901Z" fill="#FFEDBB"/>
</g>
</g>
<path d="M447.907 574.45C447.907 574.45 439.907 574.12 432.787 565.04C432.787 565.04 439.527 564.02 447.907 574.45Z" fill="#264399"/>
<g style="mix-blend-mode:soft-light">
<g style="mix-blend-mode:soft-light">
<path d="M416.337 582.311C416.337 582.311 411.397 590.311 407.627 591.861C405.293 592.749 402.705 592.699 400.407 591.721L401.017 595.881C401.017 595.881 408.247 596.731 414.827 590.411C414.827 590.411 417.297 585.721 416.337 582.311Z" fill="#C49786"/>
</g>
</g>
<path style="mix-blend-mode:multiply" opacity="0.8" fill-rule="evenodd" clip-rule="evenodd" d="M405.718 612.23C405.718 612.23 399.718 602.02 396.358 601L393.298 602.77C393.298 602.77 393.298 613.22 396.118 617.08C396.118 617.08 394.188 611.23 394.788 606.39L396.548 603.64L399.078 605.43L396.908 609.58C396.908 609.58 397.098 615.77 402.588 616.41L401.888 613.85L403.258 611.29L405.718 612.23Z" fill="url(#paint55_linear_21_18318)"/>
<path fill-rule="evenodd" clip-rule="evenodd" d="M406.647 632.801L414.067 637.211L417.847 643.091C417.847 643.091 409.277 635.961 406.647 632.801Z" fill="url(#paint56_linear_21_18318)"/>
<g style="mix-blend-mode:multiply" opacity="0.28">
<g style="mix-blend-mode:multiply" opacity="0.28">
<path fill-rule="evenodd" clip-rule="evenodd" d="M420.087 690.24L401.987 685.3C401.987 685.3 387.647 659.03 386.917 654.4C386.187 649.77 388.717 637.47 388.717 637.47L394.247 633.24L392.567 638.9C392.567 638.9 390.797 646.26 399.297 662.26C404.912 672.496 411.907 681.911 420.087 690.24Z" fill="#774AA4"/>
</g>
</g>
<g style="mix-blend-mode:multiply" opacity="0.28">
<g style="mix-blend-mode:multiply" opacity="0.28">
<path fill-rule="evenodd" clip-rule="evenodd" d="M414.457 679.661L420.807 689.191C427.607 676.411 426.907 657.911 426.907 657.911L423.197 651.361L421.197 650.681C421.197 650.681 422.827 655.071 420.857 664.011C419.607 669.547 417.444 674.836 414.457 679.661Z" fill="#774AA4"/>
</g>
</g>
<g style="mix-blend-mode:multiply" opacity="0.4">
<g style="mix-blend-mode:multiply" opacity="0.4">
<path fill-rule="evenodd" clip-rule="evenodd" d="M416.877 675.271L420.807 689.19L414.457 679.661L416.877 675.271Z" fill="#774AA4"/>
</g>
</g>
<g style="mix-blend-mode:multiply" opacity="0.4">
<g style="mix-blend-mode:multiply" opacity="0.4">
<path fill-rule="evenodd" clip-rule="evenodd" d="M365.938 656.58C365.938 656.58 383.728 676.9 386.248 678.9C388.768 680.9 412.038 694.43 412.038 694.43C412.038 694.43 389.038 684.6 383.038 681.51C377.038 678.42 365.938 656.58 365.938 656.58Z" fill="#774AA4"/>
</g>
</g>
<g style="mix-blend-mode:multiply" opacity="0.4">
<g style="mix-blend-mode:multiply" opacity="0.4">
<path fill-rule="evenodd" clip-rule="evenodd" d="M404.317 716.741C405.317 716.371 421.607 710.461 426.607 707.631C430.497 705.268 434.178 702.574 437.607 699.581L448.207 702.131C449.417 698.921 450.317 696.741 450.317 696.741C450.317 696.741 453.167 681.501 452.227 680.241C451.287 678.981 441.967 672.881 439.977 671.141C437.987 669.401 426.907 657.901 426.907 657.901L423.197 651.351L421.197 650.671C421.197 650.671 422.827 655.061 420.857 664.001C419.997 667.837 418.691 671.559 416.967 675.091C420.561 668.511 422.526 661.166 422.697 653.671L426.437 668.321L440.157 677.461L440.057 681.971C440.057 681.971 427.987 700.801 421.147 705.611C414.647 710.221 405.097 716.231 404.317 716.741Z" fill="#774AA4"/>
</g>
</g>
<g style="mix-blend-mode:multiply" opacity="0.4">
<g style="mix-blend-mode:multiply" opacity="0.4">
<path fill-rule="evenodd" clip-rule="evenodd" d="M331.647 800.081C341.167 810.461 384.327 827.591 396.277 827.831C408.227 828.071 421.047 824.291 421.047 824.291C421.047 824.291 419.507 811.411 419.557 809.171C419.607 806.931 425.367 794.531 425.377 793.781C425.377 793.781 414.037 803.321 407.957 806.781C401.877 810.241 373.257 807.351 373.257 807.351C373.257 807.351 398.007 803.181 401.627 801.971C405.247 800.761 416.697 793.121 417.417 792.631C416.647 792.901 404.537 797.271 399.487 797.891C394.267 798.531 374.487 770.451 374.487 770.451C374.487 770.451 365.737 742.451 363.027 729.841C363.027 729.841 401.157 779.521 421.737 788.351C422.897 775.901 431.867 746.701 431.867 746.701C431.867 746.701 437.467 737.771 438.347 736.511C439.227 735.251 440.347 731.041 441.707 722.771C442.567 717.401 445.937 708.021 448.197 702.091L440.197 719.981L437.017 735.541C437.017 735.541 428.147 745.541 424.067 748.041C419.987 750.541 406.737 753.841 406.737 753.841C406.737 753.841 417.867 754.841 421.737 754.151L425.587 753.481L411.907 768.901C411.907 768.901 396.957 752.141 387.717 737.901C378.477 723.661 376.037 719.321 376.037 719.321C376.037 719.321 381.357 740.001 383.177 744.651C384.887 749.041 389.667 755.891 390.177 756.651C388.647 755.091 363.847 729.721 359.377 714.511L349.217 722.511L368.217 765.771L380.027 790.881C380.027 790.881 361.787 768.621 358.537 761.101C355.287 753.581 348.287 723.261 348.287 723.261L335.927 733.611C335.927 733.611 338.647 764.911 338.587 767.611C338.527 770.311 331.647 800.081 331.647 800.081Z" fill="#774AA4"/>
</g>
</g>
<g style="mix-blend-mode:multiply" opacity="0.4">
<g style="mix-blend-mode:multiply" opacity="0.4">
<path fill-rule="evenodd" clip-rule="evenodd" d="M361.297 705.921L336.537 718.091L310.327 737.481L343.777 722.701L359.397 714.571L366.557 707.291L361.297 705.921Z" fill="#774AA4"/>
</g>
</g>
<g style="mix-blend-mode:multiply" opacity="0.4">
<g style="mix-blend-mode:multiply" opacity="0.4">
<path fill-rule="evenodd" clip-rule="evenodd" d="M390.197 756.71L387.647 754.15C388.507 755.06 389.357 755.9 390.197 756.71Z" fill="#774AA4"/>
</g>
</g>
<g style="mix-blend-mode:multiply" opacity="0.4">
<g style="mix-blend-mode:multiply" opacity="0.4">
<path fill-rule="evenodd" clip-rule="evenodd" d="M331.707 799.991L339.927 776.441L348.437 807.311L340.127 766.311L351.897 746.461L357.397 758.131L349.537 728.701L354.137 733.701L367.427 746.591L363.067 729.901L387.547 754.101C378.797 745.101 368.217 730.801 366.137 727.781C363.857 724.451 359.397 714.591 359.397 714.591L335.907 733.711C335.907 733.711 338.627 765.011 338.567 767.711C338.507 770.411 332.117 798.251 331.707 799.991Z" fill="#774AA4"/>
</g>
</g>
<g style="mix-blend-mode:multiply" opacity="0.4">
<g style="mix-blend-mode:multiply" opacity="0.4">
<path fill-rule="evenodd" clip-rule="evenodd" d="M335.907 733.69L333.067 735.93L334.157 741.31L326.127 746.4L309.987 754.53L336.247 779.66L338.567 767.7L335.907 733.69Z" fill="#774AA4"/>
</g>
</g>
<g style="mix-blend-mode:multiply" opacity="0.4">
<g style="mix-blend-mode:multiply" opacity="0.4">
<path fill-rule="evenodd" clip-rule="evenodd" d="M348.267 723.341L336.587 742.431L335.907 733.691L348.267 723.341Z" fill="#774AA4"/>
</g>
</g>
<g style="mix-blend-mode:multiply" opacity="0.4">
<g style="mix-blend-mode:multiply" opacity="0.4">
<path fill-rule="evenodd" clip-rule="evenodd" d="M425.418 793.78C425.418 793.78 411.618 805.72 407.998 806.78C404.378 807.84 393.998 808.94 383.638 808.15C383.638 808.15 402.078 811.01 406.238 809.98C410.398 808.95 420.098 807.1 420.098 807.1L425.418 793.78Z" fill="#774AA4"/>
</g>
</g>
<g style="mix-blend-mode:multiply" opacity="0.4">
<g style="mix-blend-mode:multiply" opacity="0.4">
<path fill-rule="evenodd" clip-rule="evenodd" d="M431.907 746.74C431.907 746.74 435.647 759.289 438.827 765.309L444.627 740.189L443.697 715.11L442.647 718.9L438.977 737.55L431.907 746.74Z" fill="#774AA4"/>
</g>
</g>
<g style="mix-blend-mode:multiply" opacity="0.2">
<g style="mix-blend-mode:multiply" opacity="0.2">
<path fill-rule="evenodd" clip-rule="evenodd" d="M324.367 689.15L343.367 664.41L360.077 674.13L359.767 703.13C359.767 703.13 362.627 672.42 361.277 669.99C359.927 667.56 349.377 656.68 344.077 656.15L324.367 689.15Z" fill="#774AA4"/>
</g>
</g>
<g style="mix-blend-mode:multiply" opacity="0.6">
<g style="mix-blend-mode:multiply" opacity="0.6">
<path fill-rule="evenodd" clip-rule="evenodd" d="M401.477 710.63C401.477 710.63 391.097 707.5 386.297 706.08C381.497 704.66 366.697 700.48 366.697 700.48C366.697 700.48 380.697 707.48 384.647 708.81C388.597 710.14 401.477 710.63 401.477 710.63Z" fill="#8B009A"/>
</g>
</g>
<g style="mix-blend-mode:multiply" opacity="0.4">
<g style="mix-blend-mode:multiply" opacity="0.4">
<path fill-rule="evenodd" clip-rule="evenodd" d="M492.937 751.051C492.937 751.051 488.707 747.051 486.937 738.501C485.167 729.951 487.617 715.141 487.617 715.141C487.617 715.141 478.077 739.351 478.387 751.631L482.387 752.031L492.937 751.051Z" fill="#774AA4"/>
</g>
</g>
<g style="mix-blend-mode:multiply" opacity="0.5">
<g style="mix-blend-mode:multiply" opacity="0.5">
<path fill-rule="evenodd" clip-rule="evenodd" d="M303.997 1077.35C304.667 1077.48 305.357 1077.62 306.077 1077.72L308.997 1071.48H329.567H341.697V1071.63V1071.8L343.017 1078.64C346.017 1078.45 347.887 1078.28 347.887 1078.28L348.017 1071.61L347.157 1066.91C347.157 1066.91 330.257 1068.91 321.157 1067.91C312.057 1066.91 308.467 1064.69 308.467 1064.69L310.127 1053.69C310.127 1053.69 329.127 1049.29 340.127 1053.69C322.897 1043.69 313.807 1046.46 313.807 1046.46L310.067 1050.05C305.497 1058.31 304.727 1070.72 304.727 1070.72L303.997 1077.35Z" fill="#783E7A"/>
</g>
</g>
<g style="mix-blend-mode:multiply" opacity="0.4">
<g style="mix-blend-mode:multiply" opacity="0.4">
<path fill-rule="evenodd" clip-rule="evenodd" d="M395.877 1062.74L395.737 1069.74L440.017 1070.64L440.137 1064.55L482.217 1065.33L477.827 1062.1L440.207 1061.34L415.507 1053.89L430.847 1037.19L429.597 1036.09L428.517 1035.09C427.667 1035.41 415.887 1039.78 409.847 1044.27C403.597 1048.92 396.587 1059.41 396.587 1059.41L395.877 1062.74Z" fill="#774AA4"/>
</g>
</g>
<g style="mix-blend-mode:multiply" opacity="0.5">
<g style="mix-blend-mode:multiply" opacity="0.5">
<path fill-rule="evenodd" clip-rule="evenodd" d="M493.337 731.511C491.107 726.221 490.108 720.493 490.417 714.761L488.167 716.831C488.167 716.831 485.727 729.601 488.067 737.831L493.337 731.511Z" fill="#783E7A"/>
</g>
</g>
<path style="mix-blend-mode:multiply" opacity="0.58" fill-rule="evenodd" clip-rule="evenodd" d="M520.838 715.81C520.248 717.3 514.838 726.51 514.488 727.07C515.398 726.07 521.248 716.16 524.718 712.56C528.948 708.19 535.358 706.67 535.358 706.67L535.648 703.9C530.148 700.61 523.888 702.26 522.028 703.5C520.168 704.74 515.878 714.01 515.878 714.01C514.088 716.13 510.638 715.18 510.638 715.18C510.638 715.18 512.188 706.7 514.948 701.56C516.585 698.489 518.767 695.74 521.388 693.45C512.278 697.45 506.678 716.38 506.678 716.38C509.058 716.6 517.398 714.63 517.398 714.63C517.398 714.63 521.438 714.27 520.838 715.81Z" fill="url(#paint57_linear_21_18318)"/>
<path style="mix-blend-mode:multiply" opacity="0.58" fill-rule="evenodd" clip-rule="evenodd" d="M520.157 691.4L521.387 693.4C522.077 693.31 526.497 695.4 526.497 695.4C530.967 700.53 539.137 700.87 539.137 700.87C539.857 700.53 540.491 700.03 540.988 699.407C541.486 698.785 541.834 698.057 542.007 697.28L535.297 696.05C535.297 696.05 533.087 697.97 532.027 697.95C530.967 697.93 522.037 693.04 520.157 691.4Z" fill="url(#paint58_linear_21_18318)"/>
<g style="mix-blend-mode:soft-light" opacity="0.5">
<g style="mix-blend-mode:soft-light" opacity="0.5">
<path fill-rule="evenodd" clip-rule="evenodd" d="M351.598 816.651L333.938 831.391L332.758 826.541L346.208 813.011L351.598 816.651Z" fill="#FFEDBB"/>
</g>
</g>
<g style="mix-blend-mode:soft-light" opacity="0.5">
<g style="mix-blend-mode:soft-light" opacity="0.5">
<path fill-rule="evenodd" clip-rule="evenodd" d="M361.258 669.98L374.698 675.22L365.938 656.58L361.648 652.9L344.098 656.16C350.972 659.114 356.906 663.893 361.258 669.98Z" fill="#FFEDBB"/>
</g>
</g>
<g style="mix-blend-mode:multiply" opacity="0.5">
<g style="mix-blend-mode:multiply" opacity="0.5">
<path fill-rule="evenodd" clip-rule="evenodd" d="M394.787 715.61C394.787 715.61 399.937 700.61 399.427 699.77C398.917 698.93 397.297 697.42 396.087 697.63C394.877 697.84 391.897 715.12 391.897 715.12L394.787 715.61Z" fill="#783E7A"/>
</g>
</g>
<g style="mix-blend-mode:soft-light">
<g style="mix-blend-mode:soft-light">
<path fill-rule="evenodd" clip-rule="evenodd" d="M386.698 706.43C386.698 706.43 376.018 707.3 372.008 703.08L372.718 704.69C376.141 706.983 380.213 708.109 384.328 707.9C385.17 707.5 385.965 707.007 386.698 706.43Z" fill="#FFE7F1"/>
</g>
</g>
<path fill-rule="evenodd" clip-rule="evenodd" d="M401.478 710.63C401.478 710.63 387.188 709.39 384.648 708.81C382.108 708.23 366.698 700.48 366.698 700.48L365.378 708.48C365.378 708.48 377.098 714.38 380.588 715.2C384.078 716.02 399.128 716.62 399.128 716.62L401.478 710.63Z" fill="#0E1B5E"/>
<g style="mix-blend-mode:multiply" opacity="0.5">
<g style="mix-blend-mode:multiply" opacity="0.5">
<path fill-rule="evenodd" clip-rule="evenodd" d="M394.388 702.62L392.138 703.19L389.478 720.91L390.578 720.93L394.998 703.83L394.388 702.62Z" fill="#783E7A"/>
</g>
</g>
<g style="mix-blend-mode:multiply" opacity="0.4">
<g style="mix-blend-mode:multiply" opacity="0.4">
<path fill-rule="evenodd" clip-rule="evenodd" d="M399.128 716.63L397.968 727.61L401.968 743.75L399.128 716.63Z" fill="#774AA4"/>
</g>
</g>
<path fill-rule="evenodd" clip-rule="evenodd" d="M388.308 709.331L391.048 697.501L372.218 692.671H370.218L368.838 701.541C368.838 701.541 383.438 708.471 384.068 708.661C384.698 708.851 388.308 709.331 388.308 709.331Z" fill="#3C8C6D"/>
<path fill-rule="evenodd" clip-rule="evenodd" d="M389.878 702.53L386.778 702.46L369.348 697.99L368.798 701.5C368.798 701.5 382.208 708.2 384.028 708.62C385.848 709.04 388.308 709.33 388.308 709.33L389.878 702.53Z" fill="#1D3652"/>
<g style="mix-blend-mode:multiply" opacity="0.4">
<g style="mix-blend-mode:multiply" opacity="0.4">
<path fill-rule="evenodd" clip-rule="evenodd" d="M384.647 708.811L386.887 697.421L391.047 697.501L388.307 709.331L384.647 708.811Z" fill="#774AA4"/>
</g>
</g>
<path fill-rule="evenodd" clip-rule="evenodd" d="M448.897 630.651L449.557 632.161L448.667 632.531C448.667 632.531 445.477 635.531 443.847 635.351C439.527 634.831 434.437 631.741 432.127 629.951C429.817 628.161 427.947 623.901 427.947 623.901L429.687 623.721C429.522 623.873 429.395 624.061 429.316 624.272C429.238 624.482 429.211 624.708 429.237 624.931C429.488 625.712 429.956 626.406 430.587 626.931C432.507 628.931 437.287 631.611 442.487 632.501C447.687 633.391 448.777 631.701 448.777 631.701L448.897 630.651Z" fill="#DD6668"/>
<path style="mix-blend-mode:multiply" opacity="0.6" fill-rule="evenodd" clip-rule="evenodd" d="M430.968 623.9C430.968 623.9 426.378 623.9 423.808 625.68C424.99 623.999 426.724 622.786 428.708 622.25C429.574 622.627 430.345 623.191 430.968 623.9Z" fill="url(#paint59_linear_21_18318)"/>
<path style="mix-blend-mode:multiply" opacity="0.2" d="M442.707 637.26C440.762 636.552 438.752 636.032 436.707 635.71C436.707 635.71 437.627 639.65 438.887 639.94C440.147 640.23 442.707 637.26 442.707 637.26Z" fill="url(#paint60_linear_21_18318)"/>
<path fill-rule="evenodd" clip-rule="evenodd" d="M406.647 624.49C406.647 624.49 409.457 630.21 412.327 635.43C413.703 638.056 415.281 640.57 417.047 642.95C420.227 646.66 427.477 651.04 429.137 651.49C430.797 651.94 438.687 652.34 440.417 651.11C441.587 650.28 447.147 640.11 450.887 632.92C452.747 629.4 454.137 626.62 454.377 626.09C455.057 624.47 453.957 619.48 453.957 619.48C453.153 619.567 452.339 619.488 451.566 619.247C450.794 619.006 450.079 618.609 449.467 618.08C447.894 616.563 446.565 614.813 445.527 612.89C445.527 612.89 441.847 611.16 440.447 611.22C439.586 611.374 438.756 611.664 437.987 612.08L437.697 612.21C436.585 612.807 435.424 613.309 434.227 613.71H434.167C433.037 613.86 417.437 610.71 417.437 610.71C417.437 610.71 414.557 613.71 411.717 617.16C409.755 619.404 408.054 621.863 406.647 624.49Z" fill="url(#paint61_radial_21_18319)"/>
<g style="mix-blend-mode:multiply" opacity="0.29">
<g style="mix-blend-mode:multiply" opacity="0.29">
<path fill-rule="evenodd" clip-rule="evenodd" d="M440.407 611.24L440.267 618L432.897 618.5L415.067 613.9L431.527 615.96L434.117 613.74C436.162 612.782 438.262 611.947 440.407 611.24Z" fill="#774AA4"/>
</g>
</g>
<g style="mix-blend-mode:multiply" opacity="0.29">
<g style="mix-blend-mode:multiply" opacity="0.29">
<path fill-rule="evenodd" clip-rule="evenodd" d="M406.647 624.491C406.647 624.491 413.887 639.261 417.047 642.971C420.207 646.681 427.477 651.06 429.137 651.51C430.797 651.96 438.687 652.36 440.417 651.13L427.107 645.76L424.307 643.76C424.307 643.76 412.987 633.691 410.207 627.211L421.867 636.211L431.867 640.151L424.547 634.231L417.197 622.51L418.987 622.051L430.677 624.26L440.307 620.331L425.497 621.211L412.627 616.771L411.757 617.271C409.788 619.478 408.073 621.9 406.647 624.491Z" fill="#774AA4"/>
</g>
</g>
<g style="mix-blend-mode:multiply" opacity="0.29">
<g style="mix-blend-mode:multiply" opacity="0.29">
<path fill-rule="evenodd" clip-rule="evenodd" d="M453.517 627.07L447.447 620.99L450.407 628.03L450.837 632.94L453.517 627.07Z" fill="#774AA4"/>
</g>
</g>
<g style="mix-blend-mode:multiply" opacity="0.4">
<g style="mix-blend-mode:multiply" opacity="0.4">
<path fill-rule="evenodd" clip-rule="evenodd" d="M412.277 635.431C413.653 638.056 415.231 640.57 416.997 642.951C420.177 646.661 427.427 651.041 429.087 651.491C430.747 651.941 438.637 652.341 440.367 651.111L427.057 645.741L412.277 635.431Z" fill="#774AA4"/>
</g>
</g>
<g style="mix-blend-mode:multiply" opacity="0.16">
<g style="mix-blend-mode:multiply" opacity="0.16">
<path fill-rule="evenodd" clip-rule="evenodd" d="M445.307 620.95L443.347 627.89L443.327 644.09L445.307 620.95Z" fill="#902377"/>
</g>
</g>
<path fill-rule="evenodd" clip-rule="evenodd" d="M416.567 611.66L404.567 603.66L403.567 602.29C403.567 602.29 408.567 604.35 417.327 610.75L416.567 611.66Z" fill="url(#paint62_radial_21_18319)"/>
<path fill-rule="evenodd" clip-rule="evenodd" d="M406.608 624.49L403.328 621.69L402.088 622.09L407.948 627.18L406.608 624.49Z" fill="url(#paint63_radial_21_18319)"/>
<path d="M417.688 596.24L435.397 599.7L435.367 601.13L425.848 601.59L417.688 596.24Z" fill="url(#paint64_linear_21_18318)"/>
<path d="M446.218 605.44L452.498 605.56L451.978 607.56L448.188 609.03L446.218 605.44Z" fill="url(#paint65_linear_21_18318)"/>
</g>
<defs>
<linearGradient id="paint0_linear_21_18318" x1="1287.26" y1="1035.3" x2="1286.13" y2="1006.99" gradientUnits="userSpaceOnUse">
<stop offset="0.01" stop-color="#06104D"/>
<stop offset="1" stop-color="#06104D" stop-opacity="0.59"/>
</linearGradient>
<radialGradient id="paint1_radial_21_18319" cx="0" cy="0" r="1" gradientUnits="userSpaceOnUse" gradientTransform="translate(1334.27 906.673) rotate(177.709) scale(32.3158)">
<stop stop-color="#DBDDFF"/>
<stop offset="1" stop-color="#B3C5EC"/>
</radialGradient>
<linearGradient id="paint2_linear_21_18318" x1="1308.87" y1="1029.34" x2="1285.18" y2="914.982" gradientUnits="userSpaceOnUse">
<stop offset="0.01" stop-color="#081555"/>
<stop offset="1" stop-color="#0B1469"/>
</linearGradient>
<linearGradient id="paint3_linear_21_18318" x1="1363.03" y1="1011.27" x2="1342.82" y2="919.931" gradientUnits="userSpaceOnUse">
<stop offset="0.01" stop-color="#081555"/>
<stop offset="1" stop-color="#0B1469"/>
</linearGradient>
<linearGradient id="paint4_linear_21_18318" x1="1334.58" y1="911.204" x2="1303.05" y2="723.425" gradientUnits="userSpaceOnUse">
<stop offset="0.01" stop-color="#081555"/>
<stop offset="1" stop-color="#0B1469"/>
</linearGradient>
<linearGradient id="paint5_linear_21_18318" x1="1186.12" y1="778.335" x2="1188.53" y2="764.165" gradientUnits="userSpaceOnUse">
<stop offset="0.01" stop-color="#1D3653"/>
<stop offset="1" stop-color="#3B8A6D"/>
</linearGradient>
<linearGradient id="paint6_linear_21_18318" x1="1353.36" y1="782.052" x2="1354.96" y2="772.683" gradientUnits="userSpaceOnUse">
<stop offset="0.01" stop-color="#1D3653"/>
<stop offset="1" stop-color="#3B8A6D"/>
</linearGradient>
<linearGradient id="paint7_linear_21_18318" x1="1316.49" y1="640.367" x2="1314.91" y2="600.787" gradientUnits="userSpaceOnUse">
<stop offset="0.01" stop-color="#1D3653"/>
<stop offset="1" stop-color="#3B8A6D"/>
</linearGradient>
<linearGradient id="paint8_linear_21_18318" x1="1293.2" y1="635.831" x2="1289.93" y2="554.211" gradientUnits="userSpaceOnUse">
<stop offset="0.01" stop-color="#1D3653"/>
<stop offset="1" stop-color="#3B8A6D"/>
</linearGradient>
<linearGradient id="paint9_linear_21_18318" x1="1292.34" y1="614.551" x2="1289.93" y2="554.341" gradientUnits="userSpaceOnUse">
<stop stop-color="#377F6A" stop-opacity="0"/>
<stop offset="0.99" stop-color="#215549"/>
</linearGradient>
<linearGradient id="paint10_linear_21_18318" x1="1294.14" y1="635.6" x2="1292.62" y2="604.228" gradientUnits="userSpaceOnUse">
<stop offset="0.01" stop-color="#081555"/>
<stop offset="1" stop-color="#0B1469"/>
</linearGradient>
<linearGradient id="paint11_linear_21_18318" x1="1197.62" y1="796.614" x2="1196.09" y2="758.214" gradientUnits="userSpaceOnUse">
<stop offset="0.01" stop-color="#1D3653"/>
<stop offset="1" stop-color="#3B8A6D"/>
</linearGradient>
<linearGradient id="paint12_linear_21_18318" x1="1391.22" y1="768.728" x2="1366.49" y2="769.718" gradientUnits="userSpaceOnUse">
<stop offset="0.01" stop-color="#1D3653"/>
<stop offset="1" stop-color="#3B8A6D"/>
</linearGradient>
<linearGradient id="paint13_linear_21_18318" x1="1218.69" y1="775.179" x2="1217.74" y2="760.654" gradientUnits="userSpaceOnUse">
<stop offset="0.01" stop-color="#081555"/>
<stop offset="1" stop-color="#0B1469"/>
</linearGradient>
<linearGradient id="paint14_linear_21_18318" x1="1286.5" y1="612.952" x2="1280.54" y2="606.419" gradientUnits="userSpaceOnUse">
<stop stop-color="#357A6B"/>
<stop offset="1" stop-color="#EC887E"/>
</linearGradient>
<linearGradient id="paint15_linear_21_18318" x1="1293.33" y1="618.318" x2="1288.91" y2="613.477" gradientUnits="userSpaceOnUse">
<stop stop-color="#357A6B"/>
<stop offset="1" stop-color="#EC887E"/>
</linearGradient>
<linearGradient id="paint16_linear_21_18318" x1="1314.51" y1="634.618" x2="1313.15" y2="600.558" gradientUnits="userSpaceOnUse">
<stop offset="0.01" stop-color="#39826B"/>
<stop offset="0.99" stop-color="#1D3E3B"/>
</linearGradient>
<linearGradient id="paint17_linear_21_18318" x1="1264.2" y1="552.797" x2="1264.19" y2="552.527" gradientUnits="userSpaceOnUse">
<stop offset="0.01" stop-color="#2A3491"/>
<stop offset="1" stop-color="#1F2B85"/>
</linearGradient>
<linearGradient id="paint18_linear_21_18318" x1="1320.87" y1="605.367" x2="1325.48" y2="578.421" gradientUnits="userSpaceOnUse">
<stop offset="0.01" stop-color="#1D3653"/>
<stop offset="1" stop-color="#3B8A6D"/>
</linearGradient>
<linearGradient id="paint19_linear_21_18318" x1="1379.41" y1="783.41" x2="1369.32" y2="709.462" gradientUnits="userSpaceOnUse">
<stop offset="0.01" stop-color="#081555"/>
<stop offset="1" stop-color="#0B1469"/>
</linearGradient>
<linearGradient id="paint20_linear_21_18318" x1="1344.29" y1="937.753" x2="1334.97" y2="854.222" gradientUnits="userSpaceOnUse">
<stop offset="0.01" stop-color="#081555"/>
<stop offset="1" stop-color="#0B1469"/>
</linearGradient>
<linearGradient id="paint21_linear_21_18318" x1="1374.06" y1="791.64" x2="1373.06" y2="766.65" gradientUnits="userSpaceOnUse">
<stop offset="0.01" stop-color="#1D3653"/>
<stop offset="1" stop-color="#3B8A6D"/>
</linearGradient>
<linearGradient id="paint22_linear_21_18318" x1="1314.34" y1="908.505" x2="1221.99" y2="767.702" gradientUnits="userSpaceOnUse">
<stop offset="0.01" stop-color="#081555"/>
<stop offset="1" stop-color="#0B1469"/>
</linearGradient>
<linearGradient id="paint23_linear_21_18318" x1="1256.9" y1="789.065" x2="1248.01" y2="700.081" gradientUnits="userSpaceOnUse">
<stop offset="0.01" stop-color="#081555"/>
<stop offset="1" stop-color="#0B1469"/>
</linearGradient>
<linearGradient id="paint24_linear_21_18318" x1="1361.34" y1="1020.78" x2="1360.48" y2="1000.06" gradientUnits="userSpaceOnUse">
<stop offset="0.01" stop-color="#081555"/>
<stop offset="1" stop-color="#0B1469"/>
</linearGradient>
<linearGradient id="paint25_linear_21_18318" x1="1348.18" y1="1034.33" x2="1346.96" y2="1003.84" gradientUnits="userSpaceOnUse">
<stop offset="0.01" stop-color="#081555"/>
<stop offset="1" stop-color="#0B1469"/>
</linearGradient>
<linearGradient id="paint26_linear_21_18318" x1="1374.79" y1="791.451" x2="1377.34" y2="776.545" gradientUnits="userSpaceOnUse">
<stop offset="0.01" stop-color="#1D3653"/>
<stop offset="1" stop-color="#3B8A6D"/>
</linearGradient>
<linearGradient id="paint27_linear_21_18318" x1="1366.75" y1="791.001" x2="1369.78" y2="773.272" gradientUnits="userSpaceOnUse">
<stop offset="0.01" stop-color="#1D3653"/>
<stop offset="1" stop-color="#3B8A6D"/>
</linearGradient>
<linearGradient id="paint28_linear_21_18318" x1="1360.09" y1="787.973" x2="1362.69" y2="772.725" gradientUnits="userSpaceOnUse">
<stop offset="0.01" stop-color="#1D3653"/>
<stop offset="1" stop-color="#3B8A6D"/>
</linearGradient>
<linearGradient id="paint29_linear_21_18318" x1="1269.51" y1="619.121" x2="1316.27" y2="617.25" gradientUnits="userSpaceOnUse">
<stop stop-color="#DBDDFF"/>
<stop offset="1" stop-color="#B3C5EC"/>
</linearGradient>
<linearGradient id="paint30_linear_21_18318" x1="1307.76" y1="603.528" x2="1282.42" y2="604.542" gradientUnits="userSpaceOnUse">
<stop offset="0.01" stop-color="#B488B5"/>
<stop offset="1" stop-color="#8E81F4"/>
</linearGradient>
<linearGradient id="paint31_linear_21_18318" x1="1316.39" y1="620.18" x2="1283.11" y2="621.511" gradientUnits="userSpaceOnUse">
<stop stop-color="#8BA9E0"/>
<stop offset="1" stop-color="#8E77B7"/>
</linearGradient>
<linearGradient id="paint32_linear_21_18318" x1="1275.59" y1="615.512" x2="1270.27" y2="615.725" gradientUnits="userSpaceOnUse">
<stop stop-color="#8BA9E0"/>
<stop offset="1" stop-color="#8E77B7"/>
</linearGradient>
<linearGradient id="paint33_linear_21_18318" x1="1279.72" y1="619.353" x2="1277.89" y2="619.426" gradientUnits="userSpaceOnUse">
<stop offset="0.01" stop-color="#B488B5"/>
<stop offset="1" stop-color="#8E81F4"/>
</linearGradient>
<radialGradient id="paint34_radial_21_18319" cx="0" cy="0" r="1" gradientUnits="userSpaceOnUse" gradientTransform="translate(1308.9 585.416) rotate(-2.15001) scale(12.012 11.55)">
<stop stop-color="#DBEAE3"/>
<stop offset="1" stop-color="#D3C5E8"/>
</radialGradient>
<radialGradient id="paint35_radial_21_18319" cx="0" cy="0" r="1" gradientUnits="userSpaceOnUse" gradientTransform="translate(1317.31 604.024) rotate(-2.14998) scale(7.49845 7.20997)">
<stop stop-color="#DBEAE3"/>
<stop offset="1" stop-color="#D3C5E8"/>
</radialGradient>
<linearGradient id="paint36_linear_21_18318" x1="1302.9" y1="620.749" x2="1280.31" y2="621.653" gradientUnits="userSpaceOnUse">
<stop stop-color="#8BA9E0"/>
<stop offset="1" stop-color="#8E77B7"/>
</linearGradient>
<linearGradient id="paint37_linear_21_18318" x1="1296.06" y1="592.217" x2="1295.78" y2="585.177" gradientUnits="userSpaceOnUse">
<stop stop-color="#CCEA97"/>
<stop offset="0.99" stop-color="#59936A"/>
</linearGradient>
<linearGradient id="paint38_linear_21_18318" x1="1272.14" y1="596.519" x2="1271.98" y2="592.539" gradientUnits="userSpaceOnUse">
<stop stop-color="#CCEA97"/>
<stop offset="0.99" stop-color="#59936A"/>
</linearGradient>
<linearGradient id="paint39_linear_21_18318" x1="1176.69" y1="940.45" x2="1257.83" y2="933.35" gradientUnits="userSpaceOnUse">
<stop stop-color="#0D285B"/>
<stop offset="0.99" stop-color="#051535"/>
</linearGradient>
<linearGradient id="paint40_linear_21_18318" x1="1176.69" y1="940.45" x2="1257.83" y2="933.35" gradientUnits="userSpaceOnUse">
<stop stop-color="#0D285B"/>
<stop offset="0.99" stop-color="#0B2687"/>
</linearGradient>
<linearGradient id="paint41_linear_21_18318" x1="1242" y1="940.92" x2="1308" y2="940.92" gradientUnits="userSpaceOnUse">
<stop stop-color="#0E1B5E"/>
<stop offset="0.82" stop-color="#17369F"/>
<stop offset="1" stop-color="#212A80"/>
</linearGradient>
<linearGradient id="paint42_linear_21_18318" x1="1242" y1="940.92" x2="1308" y2="940.92" gradientUnits="userSpaceOnUse">
<stop stop-color="#0E1B5E"/>
<stop offset="0.82" stop-color="#17369F"/>
<stop offset="1" stop-color="#212A80"/>
</linearGradient>
<linearGradient id="paint43_linear_21_18318" x1="1120.09" y1="830.75" x2="1393.16" y2="806.86" gradientUnits="userSpaceOnUse">
<stop stop-color="#141F7C"/>
<stop offset="1" stop-color="#0C1D76"/>
</linearGradient>
<linearGradient id="paint44_linear_21_18318" x1="537.077" y1="706.997" x2="505.057" y2="706.357" gradientUnits="userSpaceOnUse">
<stop stop-color="#3B8A6D"/>
<stop offset="0.99" stop-color="#1D3653"/>
</linearGradient>
<linearGradient id="paint45_linear_21_18318" x1="541.715" y1="711.132" x2="482.435" y2="709.947" gradientUnits="userSpaceOnUse">
<stop offset="0.01" stop-color="#1D3653"/>
<stop offset="1" stop-color="#3B8A6D"/>
</linearGradient>
<linearGradient id="paint46_linear_21_18318" x1="407.438" y1="679.836" x2="408.698" y2="616.846" gradientUnits="userSpaceOnUse">
<stop offset="0.01" stop-color="#1D3653"/>
<stop offset="1" stop-color="#3B8A6D"/>
</linearGradient>
<linearGradient id="paint47_linear_21_18318" x1="436.783" y1="651.161" x2="424.494" y2="572.324" gradientUnits="userSpaceOnUse">
<stop offset="0.01" stop-color="#1D3653"/>
<stop offset="1" stop-color="#3B8A6D"/>
</linearGradient>
<linearGradient id="paint48_linear_21_18318" x1="401.496" y1="623.254" x2="397.569" y2="598.006" gradientUnits="userSpaceOnUse">
<stop offset="0.01" stop-color="#1D3653"/>
<stop offset="1" stop-color="#3B8A6D"/>
</linearGradient>
<linearGradient id="paint49_linear_21_18318" x1="429.755" y1="615.426" x2="430.646" y2="570.866" gradientUnits="userSpaceOnUse">
<stop stop-color="#FFEADB"/>
<stop offset="0.99" stop-color="#B045BA"/>
</linearGradient>
<linearGradient id="paint50_linear_21_18318" x1="443.981" y1="621.833" x2="444.233" y2="609.253" gradientUnits="userSpaceOnUse">
<stop stop-color="#FFEADB"/>
<stop offset="0.99" stop-color="#B045BA"/>
</linearGradient>
<linearGradient id="paint51_linear_21_18318" x1="464.396" y1="587.997" x2="421.916" y2="587.148" gradientUnits="userSpaceOnUse">
<stop offset="0.01" stop-color="#BE6888"/>
<stop offset="1" stop-color="#DFDBFC"/>
</linearGradient>
<linearGradient id="paint52_linear_21_18318" x1="452.555" y1="574.835" x2="437.875" y2="574.541" gradientUnits="userSpaceOnUse">
<stop offset="0.01" stop-color="#BE6888"/>
<stop offset="1" stop-color="#DFDBFC"/>
</linearGradient>
<linearGradient id="paint53_linear_21_18318" x1="408.736" y1="608.934" x2="409.334" y2="579.014" gradientUnits="userSpaceOnUse">
<stop offset="0.01" stop-color="#BE6888"/>
<stop offset="1" stop-color="#DFDBFC"/>
</linearGradient>
<linearGradient id="paint54_linear_21_18318" x1="416.354" y1="578.104" x2="416.436" y2="574.014" gradientUnits="userSpaceOnUse">
<stop offset="0.01" stop-color="#BE6888"/>
<stop offset="1" stop-color="#8E81F4"/>
</linearGradient>
<linearGradient id="paint55_linear_21_18318" x1="399.252" y1="617.457" x2="399.573" y2="601.377" gradientUnits="userSpaceOnUse">
<stop stop-color="#FFEADB"/>
<stop offset="0.99" stop-color="#C760C0"/>
</linearGradient>
<linearGradient id="paint56_linear_21_18318" x1="417.88" y1="638.378" x2="406.47" y2="638.15" gradientUnits="userSpaceOnUse">
<stop offset="0.01" stop-color="#1D3653"/>
<stop offset="1" stop-color="#3B8A6D"/>
</linearGradient>
<linearGradient id="paint57_linear_21_18318" x1="535.488" y1="710.918" x2="506.778" y2="710.344" gradientUnits="userSpaceOnUse">
<stop offset="0.01" stop-color="#C245BA"/>
<stop offset="1" stop-color="#FFEADB"/>
</linearGradient>
<linearGradient id="paint58_linear_21_18318" x1="542.004" y1="696.692" x2="520.034" y2="696.252" gradientUnits="userSpaceOnUse">
<stop offset="0.01" stop-color="#C245BA"/>
<stop offset="1" stop-color="#FFEADB"/>
</linearGradient>
<linearGradient id="paint59_linear_21_18318" x1="434.58" y1="624.685" x2="427.769" y2="623.859" gradientUnits="userSpaceOnUse">
<stop stop-color="#FFEADB"/>
<stop offset="0.99" stop-color="#B060F4"/>
</linearGradient>
<linearGradient id="paint60_linear_21_18318" x1="442.984" y1="640.119" x2="443.456" y2="636.228" gradientUnits="userSpaceOnUse">
<stop stop-color="#FFEADB"/>
<stop offset="0.99" stop-color="#B060F4"/>
</linearGradient>
<radialGradient id="paint61_radial_21_18319" cx="0" cy="0" r="1" gradientUnits="userSpaceOnUse" gradientTransform="translate(436.544 618.946) rotate(-178.949) scale(37.3824 37.3824)">
<stop stop-color="#DBEAE3"/>
<stop offset="1" stop-color="#D3C5E8"/>
</radialGradient>
<radialGradient id="paint62_radial_21_18319" cx="0" cy="0" r="1" gradientUnits="userSpaceOnUse" gradientTransform="translate(410.993 607.258) rotate(-178.949) scale(9.46277 9.46278)">
<stop stop-color="#DBEAE3"/>
<stop offset="1" stop-color="#D3C5E8"/>
</radialGradient>
<radialGradient id="paint63_radial_21_18319" cx="0" cy="0" r="1" gradientUnits="userSpaceOnUse" gradientTransform="translate(404.267 626.226) rotate(-178.949) scale(4.81859 4.81865)">
<stop stop-color="#DBEAE3"/>
<stop offset="1" stop-color="#D3C5E8"/>
</radialGradient>
<linearGradient id="paint64_linear_21_18318" x1="426.402" y1="601.914" x2="426.506" y2="596.724" gradientUnits="userSpaceOnUse">
<stop stop-color="#CCEA97"/>
<stop offset="0.99" stop-color="#59936A"/>
</linearGradient>
<linearGradient id="paint65_linear_21_18318" x1="449.224" y1="609.352" x2="449.295" y2="605.802" gradientUnits="userSpaceOnUse">
<stop stop-color="#CCEA97"/>
<stop offset="0.99" stop-color="#59936A"/>
</linearGradient>
<clipPath id="clip0_21_18319">
<rect width="1512" height="1127" fill="white"/>
</clipPath>
</defs>
</svg>
